<svg width="1244" height="448" xmlns="http://www.w3.org/2000/svg" xmlns:xlink="http://www.w3.org/1999/xlink" xml:space="preserve" overflow="hidden"><defs><filter id="fx0" x="-10%" y="-10%" width="120%" height="120%" filterUnits="userSpaceOnUse" primitiveUnits="userSpaceOnUse"><feComponentTransfer color-interpolation-filters="sRGB"><feFuncR type="discrete" tableValues="0 0"/><feFuncG type="discrete" tableValues="0 0"/><feFuncB type="discrete" tableValues="0 0"/><feFuncA type="linear" slope="0.4" intercept="0"/></feComponentTransfer><feGaussianBlur stdDeviation="7.63889 7.63889"/></filter><clipPath id="clip1"><rect x="2588" y="570" width="1244" height="448"/></clipPath><clipPath id="clip2"><rect x="-7" y="-7" width="1260" height="463"/></clipPath><clipPath id="clip3"><rect x="0" y="0" width="1246" height="450"/></clipPath></defs><g clip-path="url(#clip1)" transform="translate(-2588 -570)"><g clip-path="url(#clip2)" filter="url(#fx0)" transform="translate(2587 569)"><g clip-path="url(#clip3)"><path d="M26.8101 92.7413C26.8101 56.218 56.418 26.61 92.9413 26.61L1153.06 26.61C1189.58 26.61 1219.19 56.218 1219.19 92.7413L1219.19 357.259C1219.19 393.782 1189.58 423.39 1153.06 423.39L92.9413 423.39C56.418 423.39 26.8101 393.782 26.8101 357.259Z" stroke="#FFC000" stroke-width="5" stroke-miterlimit="8" fill="#B50B17" fill-rule="evenodd"/><path d="M58.9404-68.5765 45.831-40.6978 65.231-40.6978 59.2264-68.5765ZM52.7563-87.4966 48.3779-95.3921C49.4778-96.2534 50.5062-96.8516 51.4632-97.1865 55.1456-98.4307 59.5931-99.0527 64.806-99.0527 70.0674-99.0527 74.1329-97.545 77.0025-94.5296 79.4893-91.897 81.5219-88.2115 83.1002-83.4731 84.6786-78.7347 86.1388-71.9878 87.4809-63.2325 88.2001-58.7823 88.8233-55.433 89.3504-53.1848 91.029-46.917 92.1438-42.9098 92.6948-41.1632 93.2459-39.4166 94.2407-36.6296 95.6792-32.8022 96.1577-31.7017 96.7917-30.1584 97.5813-28.1726 98.3708-26.1868 99.1245-24.3325 99.8423-22.6099 101.421-18.8774 103.814-13.9487 107.02-7.82373 103.002-5.00049 99.6056-2.9668 96.831-1.72266 94.0564-0.478516 91.521 0.143555 89.2248 0.143555 86.4023 0.143555 84.0464-0.406738 82.157-1.50732 80.2676-2.60791 78.5573-4.35487 77.0261-6.74819 75.2084-10.0021 73.3908-14.4287 71.5732-20.0281 71.3811-20.5545 71.153-21.2242 70.8891-22.0373 70.6252-22.8504 70.325-23.7355 69.9885-24.6925 64.3689-22.3471 59.9984-21.1743 56.8768-21.1743 55.0996-21.1743 53.5627-21.2222 52.2662-21.3179 51.1612-21.4136 46.0459-21.5571 36.9205-21.7485L36.2588-20.3421C33.618-14.7248 31.1491-10.4565 28.8522-7.53718 26.5554-4.61786 23.9118-2.56006 20.9214-1.36377 17.9311-0.16748 14.1872 0.430664 9.68994 0.430664 7.10596 0.430664 5.26367 0.143555 4.16309-0.430664 3.0625-1.00488 2.51221-1.93799 2.51221-3.22998 2.51221-4.80908 5.14404-9.16357 10.4077-16.2935 12.2739-18.7817 13.6616-20.7437 14.5708-22.1792 9.54638-23.1362 7.03418-24.9067 7.03418-27.4907 7.03418-29.5962 9.04394-32.7305 13.0635-36.8936 14.9775-38.9033 16.76-40.1833 18.4109-40.7336 20.0618-41.2839 22.9448-41.583 27.0601-41.6309 30.8882-48.665 33.3286-53.1511 34.3813-55.0891 35.4341-57.0271 36.7978-59.4675 38.4727-62.4104 40.1475-65.3533 42.0496-68.7029 44.179-72.4592 46.3083-76.2156 49.1675-81.228 52.7563-87.4966ZM152.14-30.5771C150.944-30.1943 150.106-30.0029 149.628-30.0029 147.953-30.0029 146.577-30.625 145.5-31.8691 144.424-33.1133 143.885-34.6924 143.885-36.6064 143.885-40.3867 145.225-45.2676 147.905-51.249 150.585-57.2305 153.408-61.6567 156.375-64.5278 158.528-66.6811 160.968-67.7578 163.696-67.7578 165.801-67.7578 167.62-67.052 169.151-65.6404 170.682-64.2288 171.855-62.1951 172.668-59.5393 173.482-56.8835 173.888-53.7851 173.888-50.2441 173.888-41.3437 172.022-32.9936 168.29-25.1938 164.557-17.394 159.581-11.1733 153.36-6.53174 147.139-1.89014 140.464 0.430664 133.334 0.430664 128.693 0.430664 124.649-0.669922 121.204-2.87109 117.758-5.07227 115.091-8.24243 113.201-12.3816 111.31-16.5208 110.365-21.3179 110.365-26.7729 110.365-31.9409 111.203-37.7429 112.878-44.179 114.552-50.615 116.897-57.1706 119.912-63.8459 122.926-70.5212 126.515-77.0171 130.678-83.3335 135.081-90.1763 140.129-95.5117 145.823-99.3398 149.747-102.115 153.862-103.503 158.169-103.503 162.571-103.503 166.089-102.163 168.72-99.4834 171.352-96.8037 172.668-93.2388 172.668-88.7886 172.668-85.6304 171.46-82.3166 169.043-78.8474 166.627-75.3782 163.588-72.519 159.928-70.27 156.267-68.021 152.69-66.8965 149.197-66.8965 147.522-66.8965 146.685-67.3271 146.685-68.1885 146.685-68.8584 147.379-70.0786 148.766-71.8491 151.063-74.7202 153.001-78.0339 154.58-81.7903 156.159-85.5466 156.949-88.8125 156.949-91.5879 156.949-94.124 156.566-95.3921 155.8-95.3921 154.843-95.3921 153.36-93.813 151.35-90.6548 149.34-87.4966 147.546-83.8838 145.967-79.8164 142.235-70.0547 139.363-60.7834 137.354-52.0027 135.344-43.2219 134.339-35.7451 134.339-29.5723 134.339-24.9307 135.093-21.0188 136.6-17.8367 138.107-14.6545 139.938-13.0635 142.091-13.0635 144.819-13.0635 147.091-14.6067 148.91-17.6931 150.728-20.7795 151.805-25.0742 152.14-30.5771ZM227.493-72.208C234.623-72.208 238.188-71.3706 238.188-69.6958 238.188-67.7817 236.585-66.7529 233.379-66.6094 229.503-66.3701 225.89-65.2695 222.541-63.3076 219.191-61.3457 216.212-58.666 213.604-55.2685 210.996-51.8711 208.963-48.043 207.503-43.7842 206.044-39.5254 205.314-35.0273 205.314-30.29 205.314-25.0742 206.534-20.8752 208.975-17.6931 211.415-14.511 214.597-12.9199 218.521-12.9199 222.158-12.9199 225.34-14.7861 228.068-18.5186 230.795-22.251 232.159-26.6055 232.159-31.582 232.159-35.6494 231.309-39.4656 229.611-43.0305 227.912-46.5955 225.436-49.5981 222.182-52.0386 220.794-53.1392 220.1-53.9287 220.1-54.4072 220.1-55.0771 221.081-56.1059 223.043-57.4936 225.244-58.977 227.709-60.2212 230.436-61.2261 233.164-62.2309 235.461-62.7334 237.327-62.7334 239.48-62.7334 241.526-62.1711 243.464-61.0466 245.402-59.9221 247.112-58.3191 248.596-56.2375 250.079-54.156 251.216-51.7634 252.005-49.0598 252.795-46.3562 253.19-43.4731 253.19-40.4106 253.19-35.3384 252.233-30.3259 250.319-25.3733 248.404-20.4207 245.892-16.4131 242.782-13.3506 238.762-9.47461 233.917-6.30444 228.247-3.84009 222.577-1.37573 217.181-0.143555 212.061-0.143555 207.085-0.143555 202.144-1.00488 197.239-2.72754 192.334-4.45019 188.446-6.72314 185.575-9.54639 181.747-13.3745 179.833-18.8057 179.833-25.8398 179.833-31.3906 181.197-36.9414 183.924-42.4922 186.652-48.043 190.349-53.0793 195.014-57.6013 199.68-62.1233 204.824-65.6882 210.446-68.2961 216.069-70.904 221.751-72.208 227.493-72.208ZM303.612-22.4663 302.391-21.4614C302.152-21.3179 300.549-20.0977 297.582-17.8008 291.84-13.3027 287.103-9.74975 283.37-7.14184 279.638-4.53394 276.528-2.61987 274.039-1.39966 271.551-0.179443 269.541 0.430664 268.01 0.430664 265.426 0.430664 263.357-0.634033 261.801-2.76343 260.246-4.89282 259.469-7.65625 259.469-11.0537 259.469-16.7959 260.33-23.4832 262.053-31.1155 263.775-38.7478 266.096-46.2725 269.015-53.6894 272.221-61.9199 276.145-66.9443 280.786-68.7627 282.413-69.4805 284.327-69.8393 286.529-69.8393 289.543-69.8393 291.984-68.9074 293.85-67.0434 295.716-65.1794 296.649-62.7181 296.649-59.6593 296.623-57.5561 296.25-55.3327 295.53-52.9891 294.81-50.6455 293.658-47.8474 292.073-44.595L291.21-42.5146C287.095-33.7944 285.037-28.5001 285.037-26.6316 285.037-25.5296 285.42-24.9785 286.185-24.9785 286.903-24.9785 287.836-25.481 288.985-26.4858 290.133-27.4907 291.905-29.333 294.301-32.0127 295.786-33.8311 297.895-36.104 300.626-38.8315L303.285-41.4873 305.586-43.9277C310.425-48.7129 314.379-52.1702 317.446-54.2996 320.513-56.4289 323.052-57.4936 325.065-57.4936 328.899-57.4936 330.815-54.168 330.815-47.5166 330.815-46.1289 330.648-43.6645 330.313-40.1235 329.739-33.2329 329.451-27.395 329.451-22.6099 329.499-21.6528 329.535-20.7795 329.559-19.99 329.583-19.2004 329.595-18.1836 329.595-16.9395 329.93-13.7334 330.169-11.269 330.313-9.54639 330.648-6.81885 330.815-5.45508 330.815-5.45508 330.815-4.01953 329.523-2.75146 326.939-1.65088 324.355-0.550293 321.365 0 317.967 0 314.857 0 312.189-0.610107 309.964-1.83032 307.739-3.05054 306.052-4.85693 304.904-7.24951 303.755-9.64209 303.181-12.561 303.181-16.0063 303.181-16.437 303.229-17.1907 303.325-18.2673 303.42-19.344 303.516-20.7437 303.612-22.4663ZM350.808-69.4087 351.095-70.27C354.257-79.1704 356.988-85.439 359.287-89.0757 360.389-90.7983 361.923-92.3296 363.887-93.6694 367.576-96.0142 371.049-97.1865 374.307-97.1865 376.223-97.1865 377.684-96.7553 378.69-95.8928 379.696-95.0304 380.199-93.7846 380.199-92.1554 380.199-91.0533 379.477-88.8065 378.033-85.415 375.577-79.77 373.748-74.4836 372.544-69.5556 373.358-69.4599 374.149-69.3163 374.916-69.1249 377.791-68.6943 379.683-68.2036 380.594-67.6529 381.504-67.1023 381.959-66.1092 381.959-64.6736 381.959-62.1367 381.313-59.7913 380.022-57.6372 378.731-55.4831 377.033-53.9033 374.929-52.8977 373.352-52.1799 370.793-51.7014 367.255-51.4621 366.639-49.5951 365.953-47.0336 365.197-43.7774 364.771-40.9049 364.297-36.9313 363.777-31.8568 363.489-29.9921 363.345-28.2466 363.345-26.6204 363.345-19.0659 367.006-15.2886 374.328-15.2886L374.759-15.2886 374.974-15.2886C375.835-15.2886 376.266-15.145 376.266-14.8579 376.266-14.0923 375.453-12.8003 373.826-10.9819 372.199-9.16357 370.404-7.56055 368.442-6.17285 366.337-4.7373 364.038-3.58887 361.546-2.72754 359.054-1.86621 356.801-1.43555 354.788-1.43555 349.754-1.43555 345.667-3.13428 342.526-6.53174 339.386-9.9292 337.816-14.4272 337.816-20.0259 337.816-22.4185 338.235-25.5527 339.072-29.4287 339.909-33.3047 341.213-38.4966 342.984-45.0044 343.271-46.1528 343.582-47.3611 343.917-48.6291 344.252-49.8972 344.443-50.6509 344.491-50.8901 342.577-50.938 341.213-51.3447 340.4-52.1103 339.586-52.876 339.18-54.1201 339.18-55.8428 339.18-58.8574 340.34-61.7046 342.661-64.3843 344.982-67.064 347.697-68.7388 350.808-69.4087ZM480.306-33.8071 480.45-33.8071 480.163-33.8071C476.526-27.4907 473.344-22.3945 470.616-18.5186 467.889-14.6426 465.281-11.4604 462.792-8.97217 459.73-5.90967 456.667-3.5769 453.605-1.97388 450.542-0.37085 447.624 0.430664 444.848 0.430664 439.01 0.430664 434.464-1.32788 431.21-4.84497 427.957-8.36206 426.33-13.3027 426.33-19.667 426.33-27.8975 428.579-40.0039 433.077-55.9863 434.608-61.2978 436.163-66.2744 437.742-70.916 439.321-75.5576 441.021-80.0557 442.84-84.4101 444.659-88.7646 446.072-91.8511 447.077-93.6694 447.795-94.9136 448.765-95.9065 449.986-96.6482 451.207-97.3899 452.942-98 455.192-98.4785 458.639-99.1484 461.871-99.4834 464.887-99.4834 469.963-99.4834 472.5-97.2811 472.5-92.8765 472.5-90.3867 471.424-86.6775 469.27-81.7488 467.309-77.0593 465.754-72.9919 464.606-69.5466 464.51-69.2595 464.343-68.769 464.104-68.0752 463.864-67.3813 463.577-66.532 463.242-65.5271 462.333-62.656 461.113-58.3494 459.582-52.6072 458.051-46.865 456.852-41.9849 455.984-37.9668 455.116-33.9488 454.682-31.3416 454.682-30.1454 454.682-28.3756 455.184-27.4907 456.189-27.4907 457.29-27.4907 459.778-29.979 463.654-34.9556 467.338-39.6929 471.537-45.7102 476.251-53.0076 480.964-60.3049 484.852-66.8008 487.915-72.4951 489.924-76.1797 491.396-78.7038 492.329-80.0676 493.262-81.4314 494.207-82.4722 495.164-83.1899 497.7-85.0561 500.691-85.9893 504.136-85.9893 508.539-85.9893 510.74-83.9795 510.74-79.96 510.74-79.1465 510.596-77.4717 510.309-74.9355 509.017-64.5039 508.371-54.8618 508.371-46.0093 508.371-41.9897 508.491-38.353 508.73-35.0991 508.969-31.8452 509.328-28.6631 509.807-25.5527 510.285-22.4424 510.931-19.1645 511.745-15.7192 512.749-11.0776 513.252-8.23047 513.252-7.17773 513.252-6.41211 512.989-5.69434 512.462-5.02441 511.697-3.87598 510.189-2.94287 507.94-2.2251 503.777-0.645996 500.595 0.143555 498.394 0.143555 495.619 0.143555 492.999-0.861328 490.534-2.87109 488.07-4.88086 486.024-7.7041 484.397-11.3408 482.531-15.5996 481.311-21.1743 480.737-28.0649 480.593-29.2134 480.45-31.1274 480.306-33.8071ZM539.601 3.08643C542.424 2.94287 544.996 1.56714 547.317-1.04077 549.638-3.64868 550.798-6.48389 550.798-9.54639 550.798-11.6519 550.105-13.3267 548.717-14.5708 547.234-16.0542 543.908-17.5137 538.74-18.9492 531.131-21.1504 526.179-23.6147 523.882-26.3423 521.729-28.5435 520.652-31.1753 520.652-34.2378 520.652-39.7407 522.65-45.2436 526.645-50.7466 530.641-56.2495 535.749-60.7595 541.97-64.2766 548.191-67.7937 554.459-69.5522 560.776-69.5522 563.838-69.5522 566.709-68.8345 569.389-67.3989 572.068-65.9634 574.198-64.0613 575.777-61.6926 577.356-59.324 578.146-56.7519 578.146-53.9766 578.146-51.249 577.284-48.4258 575.562-45.5068 573.839-42.5879 571.674-40.1594 569.066-38.2214 566.458-36.2834 563.982-35.3144 561.637-35.3144 560.297-35.3144 559.137-35.6016 558.156-36.1758 557.175-36.75 556.684-37.3721 556.684-38.042 556.684-38.7119 556.876-39.6929 557.258-40.9849 558.311-45.1001 558.838-48.689 558.838-51.7515 558.838-54.7661 557.928-57.6133 556.11-60.293 553.765-58.6675 552.234-57.377 551.516-56.4215 549.698-54.3182 548.286-51.9279 547.281-49.2505 546.181-46.5259 545.63-43.9449 545.63-41.5075 545.63-39.7863 546.027-38.4119 546.819-37.3842 547.611-36.3565 548.904-35.4832 550.698-34.7643 552.492-34.0454 555.207-33.2546 558.843-32.3918 564.919-30.9061 569.201-29.4691 571.688-28.0806 572.262-27.7457 573.147-27.0518 574.343-25.9991 576.16-24.0364 577.069-21.4992 577.069-18.3873 577.069-15.0841 576.04-11.7451 573.983-8.37047 571.925-4.99581 568.743-1.51331 564.436 2.07706 559.842 5.95453 555.273 8.73104 550.727 10.4066 546.181 12.0821 541.156 12.9199 535.653 12.9199 530.342 12.9199 526.167 11.8672 523.128 9.76172 520.09 7.65625 518.57 4.78516 518.57 1.14844 518.57-1.43555 519.575-4.05542 521.585-6.71118 523.595-9.36694 526.095-11.5322 529.086-13.207 532.077-14.8818 535.007-15.7192 537.879-15.7192 540.032-15.7192 541.109-15.2407 541.109-14.2837 541.109-13.8052 540.797-13.0156 540.175-11.915 538.309-8.56543 537.376-5.479 537.376-2.65576 537.376-0.645996 538.118 1.26807 539.601 3.08643Z" fill="#FFFFFF" transform="matrix(1.02 0 0 1.02 326.233 280)"/><path d="M92.5999 122.831C92.5999 94.7576 115.358 71.9998 143.431 71.9998L1101.55 71.9998C1129.62 71.9998 1152.38 94.7576 1152.38 122.831L1152.38 326.149C1152.38 354.222 1129.62 376.98 1101.55 376.98L143.431 376.98C115.358 376.98 92.5999 354.222 92.5999 326.149Z" stroke="#FFC000" stroke-width="11" stroke-miterlimit="8" fill="none" fill-rule="evenodd"/></g></g><path d="M2625.5 664.335C2625.5 628.527 2654.53 599.5 2690.33 599.5L3729.67 599.5C3765.47 599.5 3794.5 628.527 3794.5 664.335L3794.5 923.666C3794.5 959.473 3765.47 988.5 3729.67 988.5L2690.33 988.5C2654.53 988.5 2625.5 959.473 2625.5 923.666Z" stroke="#FFC000" stroke-width="4.58333" stroke-miterlimit="8" fill="#B50B17" fill-rule="evenodd"/><text fill="#FFFFFF" font-family="Forte,Forte_MSFontService,sans-serif" font-weight="400" font-size="147" transform="matrix(1 0 0 1 2919.05 848)">About Us </text><path d="M2690 693.834C2690 666.311 2712.31 644 2739.83 644L3679.17 644C3706.69 644 3729 666.311 3729 693.834L3729 893.166C3729 920.688 3706.69 943 3679.17 943L2739.83 943C2712.31 943 2690 920.688 2690 893.166Z" stroke="#FFC000" stroke-width="10.3125" stroke-miterlimit="8" fill="none" fill-rule="evenodd"/></g></svg>