<svg width="449" height="449" xmlns="http://www.w3.org/2000/svg" xmlns:xlink="http://www.w3.org/1999/xlink" xml:space="preserve" overflow="hidden"><defs><filter id="fx0" x="-10%" y="-10%" width="120%" height="120%" filterUnits="userSpaceOnUse" primitiveUnits="userSpaceOnUse"><feComponentTransfer color-interpolation-filters="sRGB"><feFuncR type="discrete" tableValues="0 0"/><feFuncG type="discrete" tableValues="0 0"/><feFuncB type="discrete" tableValues="0 0"/><feFuncA type="linear" slope="0.4" intercept="0"/></feComponentTransfer><feGaussianBlur stdDeviation="7.63889 7.63889"/></filter><clipPath id="clip1"><rect x="2699" y="1440" width="449" height="449"/></clipPath><clipPath id="clip2"><rect x="-7" y="-7" width="463" height="463"/></clipPath><clipPath id="clip3"><rect x="0" y="0" width="451" height="451"/></clipPath></defs><g clip-path="url(#clip1)" transform="translate(-2699 -1440)"><g clip-path="url(#clip2)" filter="url(#fx0)" transform="translate(2698 1439)"><g clip-path="url(#clip3)"><path d="M26.5999 92.9013C26.5999 56.2841 56.284 26.6 92.9012 26.6L358.099 26.6C394.716 26.6 424.4 56.2841 424.4 92.9013L424.4 358.099C424.4 394.716 394.716 424.4 358.099 424.4L92.9012 424.4C56.284 424.4 26.5999 394.716 26.5999 358.099Z" stroke="#FFC000" stroke-width="5" stroke-miterlimit="8" fill="#B50B17" fill-rule="evenodd"/><path d="M58.73 117.041C58.73 86.5267 83.4668 61.7899 113.981 61.7899L334.979 61.7899C365.493 61.7899 390.23 86.5267 390.23 117.041L390.23 338.039C390.23 368.553 365.493 393.29 334.979 393.29L113.981 393.29C83.4668 393.29 58.73 368.553 58.73 338.039Z" stroke="#FFC000" stroke-width="11" stroke-miterlimit="8" fill="none" fill-rule="evenodd"/></g></g><path d="M2728.5 1534.5C2728.5 1498.6 2757.6 1469.5 2793.5 1469.5L3053.5 1469.5C3089.4 1469.5 3118.5 1498.6 3118.5 1534.5L3118.5 1794.5C3118.5 1830.4 3089.4 1859.5 3053.5 1859.5L2793.5 1859.5C2757.6 1859.5 2728.5 1830.4 2728.5 1794.5Z" stroke="#FFC000" stroke-width="4.58333" stroke-miterlimit="8" fill="#B50B17" fill-rule="evenodd"/><path d="M2760 1558.17C2760 1528.25 2784.25 1504 2814.17 1504L3030.83 1504C3060.75 1504 3085 1528.25 3085 1558.17L3085 1774.83C3085 1804.75 3060.75 1829 3030.83 1829L2814.17 1829C2784.25 1829 2760 1804.75 2760 1774.83Z" stroke="#FFC000" stroke-width="10.3125" stroke-miterlimit="8" fill="none" fill-rule="evenodd"/><path d="M2828.5 1594C2828.5 1592.07 2830.07 1590.5 2832 1590.5L3020 1590.5C3021.93 1590.5 3023.5 1592.07 3023.5 1594L3023.5 1608C3023.5 1609.93 3021.93 1611.5 3020 1611.5L2832 1611.5C2830.07 1611.5 2828.5 1609.93 2828.5 1608Z" stroke="#FFC000" stroke-width="4.58333" stroke-miterlimit="8" fill="#D9D9D9" fill-rule="evenodd"/><path d="M2828.5 1660C2828.5 1658.07 2830.07 1656.5 2832 1656.5L3020 1656.5C3021.93 1656.5 3023.5 1658.07 3023.5 1660L3023.5 1674C3023.5 1675.93 3021.93 1677.5 3020 1677.5L2832 1677.5C2830.07 1677.5 2828.5 1675.93 2828.5 1674Z" stroke="#FFC000" stroke-width="4.58333" stroke-miterlimit="8" fill="#D9D9D9" fill-rule="evenodd"/><path d="M2828.5 1726C2828.5 1724.07 2830.07 1722.5 2832 1722.5L3020 1722.5C3021.93 1722.5 3023.5 1724.07 3023.5 1726L3023.5 1740C3023.5 1741.93 3021.93 1743.5 3020 1743.5L2832 1743.5C2830.07 1743.5 2828.5 1741.93 2828.5 1740Z" stroke="#FFC000" stroke-width="4.58333" stroke-miterlimit="8" fill="#D9D9D9" fill-rule="evenodd"/></g></svg>