<svg width="1244" height="449" xmlns="http://www.w3.org/2000/svg" xmlns:xlink="http://www.w3.org/1999/xlink" xml:space="preserve" overflow="hidden"><defs><filter id="fx0" x="-10%" y="-10%" width="120%" height="120%" filterUnits="userSpaceOnUse" primitiveUnits="userSpaceOnUse"><feComponentTransfer color-interpolation-filters="sRGB"><feFuncR type="discrete" tableValues="0 0"/><feFuncG type="discrete" tableValues="0 0"/><feFuncB type="discrete" tableValues="0 0"/><feFuncA type="linear" slope="0.4" intercept="0"/></feComponentTransfer><feGaussianBlur stdDeviation="7.63889 7.63889"/></filter><clipPath id="clip1"><rect x="2588" y="120" width="1244" height="449"/></clipPath><clipPath id="clip2"><rect x="-7" y="-7" width="1260" height="463"/></clipPath><clipPath id="clip3"><rect x="0" y="0" width="1246" height="451"/></clipPath></defs><g clip-path="url(#clip1)" transform="translate(-2588 -120)"><g clip-path="url(#clip2)" filter="url(#fx0)" transform="translate(2587 119)"><g clip-path="url(#clip3)"><path d="M26.8101 92.9009C26.8101 56.2839 56.4939 26.6 93.1108 26.6L1152.89 26.6C1189.51 26.6 1219.19 56.2839 1219.19 92.9009L1219.19 358.099C1219.19 394.716 1189.51 424.4 1152.89 424.4L93.1108 424.4C56.4939 424.4 26.8101 394.716 26.8101 358.099Z" stroke="#FFC000" stroke-width="5" stroke-miterlimit="8" fill="#B50B17" fill-rule="evenodd"/><path d="M57.3501-52.0386C59.2163-56.8237 60.8074-62.1951 62.1233-68.1526 63.4392-74.1101 64.0972-79.0268 64.0972-82.9028 64.0972-85.439 63.499-86.707 62.3027-86.707 61.2021-86.707 59.1924-85.2476 56.2734-82.3286 51.9189-77.6392 48.043-72.2439 44.6455-66.1428 41.248-60.0417 38.6401-53.8091 36.8218-47.4448 35.0034-41.0806 34.0942-34.8599 34.0942-28.7827 34.0942-23.9976 34.6086-20.7197 35.6374-18.9492 36.6663-17.1787 38.6162-16.2935 41.4873-16.2935 43.9756-16.2935 47.062-16.9873 50.7466-18.375 59.0727-21.6768 67.8774-26.3901 77.1606-32.5151 81.2759-35.147 83.8838-36.4629 84.9844-36.4629 86.5635-36.4629 87.353-35.6733 87.353-34.0942L87.353-33.9507C87.1138-31.7974 86.3721-29.3569 85.1279-26.6294 82.6396-21.3657 80.4863-17.9204 78.668-16.2935 75.6055-13.5659 71.4065-10.8862 66.071-8.25439 60.7356-5.62256 55.2685-3.46924 49.6699-1.79443 44.0713-0.119629 39.3818 0.717773 35.6016 0.717773 31.2471 0.717773 27.1318-0.107666 23.2559-1.75854 19.3799-3.40942 16.0063-5.67041 13.1353-8.5415 10.2642-11.4126 8.01514-14.7622 6.38818-18.5903 4.76123-22.4185 3.94775-26.5098 3.94775-30.8643 3.94775-34.166 4.47412-37.7429 5.52685-41.595 6.57959-45.447 8.11084-49.4785 10.1206-53.6894 12.1304-57.9004 14.4033-61.8481 16.9395-65.5327 18.4228-67.7339 19.9661-69.8393 21.5691-71.8491 23.1721-73.8589 24.9426-75.8208 26.8806-77.7349 28.8186-79.6489 30.936-81.4912 33.2329-83.2617 35.5298-85.0322 37.6353-86.5395 39.5493-87.7837 42.8989-90.0327 46.3682-91.9946 49.957-93.6694 53.5459-95.3442 56.8716-96.5884 59.9341-97.4018 62.9966-98.2153 65.7959-98.6221 68.332-98.6221 74.6006-98.6221 79.5054-96.9951 83.0464-93.7412 86.5874-90.4873 88.3579-85.9893 88.3579-80.2471 88.3579-74.2178 86.8745-67.9133 83.9077-61.3337 80.9409-54.7541 76.9932-49 72.0644-44.0713 68.667-40.5781 65.2934-37.8267 61.9438-35.8169 58.5942-33.8071 55.5796-32.8022 52.8999-32.8022 50.5552-32.8022 49.3828-33.9268 49.3828-36.1758 49.3828-37.2285 50.0288-38.688 51.3208-40.5542 53.1392-43.1382 55.1489-46.9663 57.3501-52.0386ZM142.129-72.208C149.259-72.208 152.824-71.3706 152.824-69.6958 152.824-67.7817 151.221-66.7529 148.014-66.6094 144.138-66.3701 140.526-65.2695 137.176-63.3076 133.826-61.3457 130.848-58.666 128.24-55.2685 125.632-51.8711 123.598-48.043 122.139-43.7842 120.679-39.5254 119.95-35.0273 119.95-30.29 119.95-25.0742 121.17-20.8752 123.61-17.6931 126.051-14.511 129.233-12.9199 133.157-12.9199 136.793-12.9199 139.975-14.7861 142.703-18.5186 145.43-22.251 146.794-26.6055 146.794-31.582 146.794-35.6494 145.945-39.4656 144.246-43.0305 142.547-46.5955 140.071-49.5981 136.817-52.0386 135.43-53.1392 134.736-53.9287 134.736-54.4072 134.736-55.0771 135.717-56.1059 137.679-57.4936 139.88-58.977 142.344-60.2212 145.072-61.2261 147.799-62.2309 150.096-62.7334 151.962-62.7334 154.116-62.7334 156.161-62.1711 158.099-61.0466 160.037-59.9221 161.748-58.3191 163.231-56.2375 164.715-54.156 165.851-51.7634 166.641-49.0598 167.43-46.3562 167.825-43.4731 167.825-40.4106 167.825-35.3384 166.868-30.3259 164.954-25.3733 163.04-20.4207 160.528-16.4131 157.417-13.3506 153.398-9.47461 148.553-6.30444 142.882-3.84009 137.212-1.37573 131.817-0.143555 126.697-0.143555 121.72-0.143555 116.779-1.00488 111.875-2.72754 106.97-4.45019 103.082-6.72314 100.211-9.54639 96.3826-13.3745 94.4686-18.8057 94.4686-25.8398 94.4686-31.3906 95.8324-36.9414 98.5599-42.4922 101.287-48.043 104.984-53.0793 109.649-57.6013 114.315-62.1233 119.459-65.6882 125.082-68.2961 130.704-70.904 136.387-72.208 142.129-72.208ZM204.655-37.8457 208.981-42.8836C213.356-47.7301 216.822-51.3399 219.38-53.713 221.938-56.0861 224.232-57.8 226.264-58.8546 228.296-59.9092 230.364-60.4365 232.467-60.4365 235.861-60.4365 238.252-59.5273 239.638-57.709 241.025-55.8906 241.718-52.7324 241.718-48.2344 241.718-46.3682 241.527-43.6167 241.144-39.98 240.57-35.147 240.283-30.6011 240.283-26.3423 240.283-21.5571 240.522-17.6812 241-14.7144 241.335-12.896 241.838-11.0776 242.508-9.25928 242.986-7.53662 243.226-6.36426 243.226-5.74219 243.226-4.97656 242.938-4.37842 242.364-3.94775 240.881-2.65576 238.919-1.53125 236.479-0.574219 234.038 0.382812 231.98 0.861328 230.306 0.861328 227.578 0.861328 225.102-0.0717774 222.877-1.93799 220.652-3.8042 218.929-6.38818 217.709-9.68994 216.489-12.9917 215.878-16.7241 215.878-20.8872 215.878-23.6626 216.166-26.9404 216.74-30.7207L216.453-31.0078C214.395-28.7109 212.732-26.8926 211.464-25.5527 210.196-24.2129 209.012-22.9448 207.911-21.7485 202.552-15.6235 198.006-10.0967 194.273-5.16797 192.838-3.25391 191.522-1.5791 190.326-0.143555 188.555 1.62695 186.545 2.51221 184.296 2.51221 181.234 2.51221 178.746 1.36377 176.832-0.933105 174.917-3.22998 173.96-6.19678 173.96-9.8335 173.96-12.0825 174.224-14.834 174.75-18.0879 175.276-21.3418 175.982-24.823 176.867-28.5315 177.753-32.24 178.805-36.0561 180.026-39.98 181.246-43.9038 182.574-47.6362 184.009-51.1772 186.21-57.063 188.891-61.6567 192.049-64.9585 194.203-67.1118 196.811-68.1885 199.873-68.1885 204.85-68.1885 207.339-64.9585 207.339-58.4985 207.339-53.7612 206.349-46.973 204.368-38.134ZM262.578-69.4087 262.866-70.27C266.027-79.1704 268.758-85.439 271.058-89.0757 272.16-90.7983 273.693-92.3296 275.658-93.6694 279.347-96.0142 282.82-97.1865 286.078-97.1865 287.994-97.1865 289.455-96.7553 290.461-95.8928 291.467-95.0304 291.97-93.7846 291.97-92.1554 291.97-91.0533 291.248-88.8065 289.803-85.415 287.348-79.77 285.518-74.4836 284.315-69.5556 285.129-69.4599 285.92-69.3163 286.687-69.1249 289.561-68.6943 291.454-68.2036 292.364-67.6529 293.275-67.1023 293.73-66.1092 293.73-64.6736 293.73-62.1367 293.084-59.7913 291.793-57.6372 290.502-55.4831 288.804-53.9033 286.7-52.8977 285.122-52.1799 282.564-51.7014 279.026-51.4621 278.41-49.5951 277.724-47.0336 276.968-43.7774 276.541-40.9049 276.068-36.9313 275.548-31.8568 275.26-29.9921 275.116-28.2466 275.116-26.6204 275.116-19.0659 278.777-15.2886 286.099-15.2886L286.53-15.2886 286.745-15.2886C287.606-15.2886 288.037-15.145 288.037-14.8579 288.037-14.0923 287.223-12.8003 285.597-10.9819 283.97-9.16357 282.175-7.56055 280.213-6.17285 278.108-4.7373 275.809-3.58887 273.317-2.72754 270.825-1.86621 268.572-1.43555 266.559-1.43555 261.525-1.43555 257.437-3.13428 254.297-6.53174 251.157-9.9292 249.587-14.4272 249.587-20.0259 249.587-22.4185 250.005-25.5527 250.843-29.4287 251.68-33.3047 252.984-38.4966 254.755-45.0044 255.042-46.1528 255.353-47.3611 255.688-48.6291 256.023-49.8972 256.214-50.6509 256.262-50.8901 254.348-50.938 252.984-51.3447 252.171-52.1103 251.357-52.876 250.951-54.1201 250.951-55.8428 250.951-58.8574 252.111-61.7046 254.432-64.3843 256.753-67.064 259.468-68.7388 262.578-69.4087ZM352.832-37.3242 351.468-36.8936C348.022-35.9365 345.534-35.458 344.003-35.458 342.137-35.458 341.204-35.9365 341.204-36.8936 341.204-37.2285 341.586-38.1138 342.352-39.5493 345.032-43.6167 346.372-47.4448 346.372-51.0337 346.372-53.0913 346.013-54.9695 345.295-56.6682 344.577-58.3669 343.788-59.2163 342.926-59.2163 342.161-59.2163 340.988-58.4028 339.409-56.7759 334.959-51.9429 331.43-46.9902 328.822-41.918 326.214-36.8457 324.91-32.3237 324.91-28.352 324.91-25.7202 325.448-23.543 326.525-21.8203 327.602-20.0977 328.954-19.2363 330.581-19.2363 331.968-19.2363 334.564-20.7197 338.368-23.6865 342.173-26.6533 346.443-30.5771 351.181-35.458L353.119-37.0371ZM348.525-20.8872 348.525-20.6001 348.238-20.8872C343.788-15.6714 339.708-11.4006 336-8.07495 332.291-4.74927 328.87-2.24902 325.736-0.574219 322.601 1.10059 319.718 1.93799 317.086 1.93799 311.727 1.93799 307.301 0.143555 303.808-3.44531 300.314-7.03418 298.568-11.5801 298.568-17.083 298.568-20.4805 299.429-24.5 301.152-29.1416 302.875-33.7832 305.243-38.3291 308.258-42.7793 313.282-50.0527 319.599-56.2256 327.207-61.2978 335.055-66.5137 342.615-69.1216 349.889-69.1216 356.014-69.1216 361.05-67.8655 364.998-65.3533 368.946-62.8411 370.919-59.6709 370.919-55.8428 370.919-53.0195 369.938-50.0288 367.977-46.8706 370.561-46.8706 372.188-46.5955 372.857-46.0452 373.527-45.4949 373.862-44.2148 373.862-42.2051 373.862-42.3965 373.743-41.4155 373.503-39.2622 373.216-34.5249 373.073-30.0986 373.073-25.9834 373.073-23.8301 373.097-22.2031 373.145-21.1025 373.192-20.002 373.288-18.7339 373.432-17.2983 373.575-15.8628 373.719-14.7144 373.862-13.853 374.245-11.604 374.867-9.37891 375.729-7.17773 372.857-4.35449 370.106-2.28491 367.474-0.968994 364.842 0.346924 362.163 1.00488 359.435 1.00488 352.066 1.00488 348.381-5.16797 348.381-17.5137 348.381-18.9492 348.429-20.0737 348.525-20.8872ZM419.473-69.2651C423.109-69.1216 426.004-68.0688 428.158-66.1069 430.311-64.145 431.388-61.5132 431.388-58.2114 431.388-55.3403 430.562-52.4453 428.911-49.5264 427.26-46.6074 425.179-44.2148 422.667-42.3486 420.155-40.4824 417.63-39.5493 415.094-39.5493 413.611-39.5493 412.869-40.0757 412.869-41.1284 412.869-41.5112 413.156-42.3486 413.73-43.6406 415.597-46.7988 416.53-50.4355 416.53-54.5508 416.53-56.6084 416.29-57.6372 415.812-57.6372 415.142-57.6372 414.185-56.7759 412.941-55.0532 411.697-53.3306 410.644-51.2969 409.783-48.9521 408.299-45.2676 407.067-41.3437 406.086-37.1807 405.105-33.0176 404.615-29.5005 404.615-26.6294 404.615-23.3755 405.105-20.8154 406.086-18.9492 407.067-17.083 408.443-16.1499 410.213-16.1499 411.84-16.1499 414.018-17.0112 416.745-18.7339 419.473-20.4565 422.057-22.5859 424.497-25.1221 425.502-26.4141 426.387-27.0601 427.153-27.0601 428.301-27.0601 428.875-26.4141 428.875-25.1221 428.875-19.2363 426.579-13.9009 421.985-9.11572 418.827-5.95752 415.202-3.40942 411.111-1.47144 407.019 0.466553 403.347 1.43555 400.093 1.43555 394.398 1.43555 389.661-0.358887 385.881-3.94775 382.101-7.53662 380.21-12.0586 380.21-17.5137 380.21-22.9687 381.419-28.699 383.835-34.7043 386.252-40.7097 389.553-46.416 393.74-51.8232 397.927-57.2305 402.677-61.7524 407.988-65.3892 411.816-67.9731 415.549-69.2651 419.186-69.2651ZM450.495-69.4087 450.782-70.27C453.944-79.1704 456.675-85.439 458.975-89.0757 460.077-90.7983 461.61-92.3296 463.574-93.6694 467.263-96.0142 470.737-97.1865 473.994-97.1865 475.911-97.1865 477.372-96.7553 478.378-95.8928 479.384-95.0304 479.887-93.7846 479.887-92.1554 479.887-91.0533 479.165-88.8065 477.72-85.415 475.265-79.77 473.435-74.4836 472.231-69.5556 473.046-69.4599 473.836-69.3163 474.603-69.1249 477.478-68.6943 479.371-68.2036 480.281-67.6529 481.191-67.1023 481.646-66.1092 481.646-64.6736 481.646-62.1367 481.001-59.7913 479.71-57.6372 478.418-55.4831 476.721-53.9033 474.617-52.8977 473.039-52.1799 470.481-51.7014 466.942-51.4621 466.327-49.5951 465.641-47.0336 464.884-43.7774 464.458-40.9049 463.985-36.9313 463.464-31.8568 463.177-29.9921 463.033-28.2466 463.033-26.6204 463.033-19.0659 466.694-15.2886 474.016-15.2886L474.446-15.2886 474.662-15.2886C475.523-15.2886 475.954-15.145 475.954-14.8579 475.954-14.0923 475.14-12.8003 473.513-10.9819 471.886-9.16357 470.092-7.56055 468.13-6.17285 466.024-4.7373 463.726-3.58887 461.234-2.72754 458.742-1.86621 456.489-1.43555 454.475-1.43555 449.441-1.43555 445.354-3.13428 442.214-6.53174 439.074-9.9292 437.503-14.4272 437.503-20.0259 437.503-22.4185 437.922-25.5527 438.76-29.4287 439.597-33.3047 440.901-38.4966 442.671-45.0044 442.958-46.1528 443.27-47.3611 443.604-48.6291 443.939-49.8972 444.131-50.6509 444.179-50.8901 442.265-50.938 440.901-51.3447 440.087-52.1103 439.274-52.876 438.867-54.1201 438.867-55.8428 438.867-58.8574 440.028-61.7046 442.348-64.3843 444.669-67.064 447.385-68.7388 450.495-69.4087Z" fill="#FFFFFF" transform="matrix(1.02 0 0 1.02 275.393 280)"/><path d="M57.4936-33.8071 57.6372-33.8071 57.3501-33.8071C53.7134-27.4907 50.5312-22.3945 47.8037-18.5186 45.0762-14.6426 42.4683-11.4604 39.98-8.97217 36.9175-5.90967 33.855-3.5769 30.7925-1.97388 27.73-0.37085 24.811 0.430664 22.0356 0.430664 16.1978 0.430664 11.6519-1.32788 8.39795-4.84497 5.14404-8.36206 3.51709-13.3027 3.51709-19.667 3.51709-27.8975 5.76611-40.0039 10.2642-55.9863 11.7954-61.2978 13.3506-66.2744 14.9297-70.916 16.5088-75.5576 18.2081-80.0557 20.0276-84.4101 21.847-88.7646 23.2592-91.8511 24.2641-93.6694 24.9826-94.9136 25.9524-95.9065 27.1733-96.6482 28.3943-97.3899 30.1297-98 32.3794-98.4785 35.827-99.1484 39.0588-99.4834 42.075-99.4834 47.1502-99.4834 49.6879-97.2811 49.6879-92.8765 49.6879-90.3867 48.6112-86.6775 46.4579-81.7488 44.4967-77.0593 42.9419-72.9919 41.7935-69.5466 41.6978-69.2595 41.5303-68.769 41.291-68.0752 41.0518-67.3813 40.7647-66.532 40.4297-65.5271 39.5205-62.656 38.3005-58.3494 36.7696-52.6072 35.2387-46.865 34.0393-41.9849 33.1712-37.9668 32.3032-33.9488 31.8691-31.3416 31.8691-30.1454 31.8691-28.3756 32.3716-27.4907 33.3765-27.4907 34.477-27.4907 36.9653-29.979 40.8413-34.9556 44.5259-39.6929 48.7248-45.7102 53.4382-53.0076 58.1516-60.3049 62.0395-66.8008 65.102-72.4951 67.1118-76.1797 68.5832-78.7038 69.5163-80.0676 70.4495-81.4314 71.3945-82.4722 72.3516-83.1899 74.8877-85.0561 77.8784-85.9893 81.3237-85.9893 85.7261-85.9893 87.9272-83.9795 87.9272-79.96 87.9272-79.1465 87.7837-77.4717 87.4966-74.9355 86.2046-64.5039 85.5586-54.8618 85.5586-46.0093 85.5586-41.9897 85.6782-38.353 85.9175-35.0991 86.1567-31.8452 86.5156-28.6631 86.9941-25.5527 87.4726-22.4424 88.1186-19.1645 88.9321-15.7192 89.937-11.0776 90.4394-8.23047 90.4394-7.17773 90.4394-6.41211 90.1763-5.69434 89.6499-5.02441 88.8843-3.87598 87.3769-2.94287 85.1279-2.2251 80.9648-0.645996 77.7827 0.143555 75.5815 0.143555 72.8061 0.143555 70.1863-0.861328 67.7219-2.87109 65.2576-4.88086 63.2119-7.7041 61.585-11.3408 59.7187-15.5996 58.4985-21.1743 57.9243-28.0649 57.7808-29.2134 57.6372-31.1274 57.4936-33.8071ZM116.789 3.08643C119.612 2.94287 122.184 1.56714 124.505-1.04077 126.826-3.64868 127.986-6.48389 127.986-9.54639 127.986-11.6519 127.292-13.3267 125.904-14.5708 124.421-16.0542 121.095-17.5137 115.927-18.9492 108.319-21.1504 103.366-23.6147 101.069-26.3423 98.9162-28.5435 97.8395-31.1753 97.8395-34.2378 97.8395-39.7407 99.8373-45.2436 103.833-50.7466 107.829-56.2495 112.937-60.7595 119.157-64.2766 125.378-67.7937 131.647-69.5522 137.963-69.5522 141.026-69.5522 143.897-68.8345 146.576-67.3989 149.256-65.9634 151.385-64.0613 152.965-61.6926 154.544-59.324 155.333-56.7519 155.333-53.9766 155.333-51.249 154.472-48.4258 152.749-45.5068 151.027-42.5879 148.861-40.1594 146.253-38.2214 143.645-36.2834 141.169-35.3144 138.824-35.3144 137.485-35.3144 136.324-35.6016 135.343-36.1758 134.362-36.75 133.872-37.3721 133.872-38.042 133.872-38.7119 134.063-39.6929 134.446-40.9849 135.499-45.1001 136.025-48.689 136.025-51.7515 136.025-54.7661 135.116-57.6133 133.298-60.293 130.953-58.6675 129.422-57.377 128.704-56.4215 126.885-54.3182 125.474-51.9279 124.469-49.2505 123.368-46.5259 122.818-43.9449 122.818-41.5075 122.818-39.7863 123.214-38.4119 124.006-37.3842 124.798-36.3565 126.092-35.4832 127.886-34.7643 129.68-34.0454 132.395-33.2546 136.031-32.3918 142.107-30.9061 146.389-29.4691 148.875-28.0806 149.45-27.7457 150.335-27.0518 151.53-25.9991 153.348-24.0364 154.257-21.4992 154.257-18.3873 154.257-15.0841 153.228-11.7451 151.17-8.37047 149.112-4.99581 145.93-1.51331 141.624 2.07706 137.03 5.95453 132.46 8.73104 127.914 10.4066 123.368 12.0821 118.344 12.9199 112.841 12.9199 107.529 12.9199 103.354 11.8672 100.316 9.76172 97.2773 7.65625 95.758 4.78516 95.758 1.14844 95.758-1.43555 96.7629-4.05542 98.7726-6.71118 100.782-9.36694 103.283-11.5322 106.273-13.207 109.264-14.8818 112.195-15.7192 115.066-15.7192 117.219-15.7192 118.296-15.2407 118.296-14.2837 118.296-13.8052 117.985-13.0156 117.363-11.915 115.497-8.56543 114.564-5.479 114.564-2.65576 114.564-0.645996 115.305 1.26807 116.789 3.08643Z" fill="#FFFFFF" transform="matrix(1.02 0 0 1.02 808.343 280)"/><path d="M92.5999 123.841C92.5999 95.7677 115.358 73.0099 143.431 73.0099L1101.55 73.0099C1129.62 73.0099 1152.38 95.7677 1152.38 123.841L1152.38 327.159C1152.38 355.232 1129.62 377.99 1101.55 377.99L143.431 377.99C115.358 377.99 92.5999 355.232 92.5999 327.159Z" stroke="#FFC000" stroke-width="11" stroke-miterlimit="8" fill="none" fill-rule="evenodd"/></g></g><path d="M2625.5 214.501C2625.5 178.602 2654.6 149.5 2690.5 149.5L3729.5 149.5C3765.4 149.5 3794.5 178.602 3794.5 214.501L3794.5 474.499C3794.5 510.398 3765.4 539.5 3729.5 539.5L2690.5 539.5C2654.6 539.5 2625.5 510.398 2625.5 474.499Z" stroke="#FFC000" stroke-width="4.58333" stroke-miterlimit="8" fill="#B50B17" fill-rule="evenodd"/><text fill="#FFFFFF" font-family="Forte,Forte_MSFontService,sans-serif" font-weight="400" font-size="147" transform="matrix(1 0 0 1 2869.21 398)">Contact<tspan font-size="147" x="522.5" y="0">Us</tspan></text><path d="M2690 244.834C2690 217.311 2712.31 195 2739.83 195L3679.17 195C3706.69 195 3729 217.311 3729 244.834L3729 444.166C3729 471.688 3706.69 494 3679.17 494L2739.83 494C2712.31 494 2690 471.688 2690 444.166Z" stroke="#FFC000" stroke-width="10.3125" stroke-miterlimit="8" fill="none" fill-rule="evenodd"/></g></svg>