<svg width="1245" height="449" xmlns="http://www.w3.org/2000/svg" xmlns:xlink="http://www.w3.org/1999/xlink" xml:space="preserve" overflow="hidden"><defs><filter id="fx0" x="-10%" y="-10%" width="120%" height="120%" filterUnits="userSpaceOnUse" primitiveUnits="userSpaceOnUse"><feComponentTransfer color-interpolation-filters="sRGB"><feFuncR type="discrete" tableValues="0 0"/><feFuncG type="discrete" tableValues="0 0"/><feFuncB type="discrete" tableValues="0 0"/><feFuncA type="linear" slope="0.4" intercept="0"/></feComponentTransfer><feGaussianBlur stdDeviation="7.63889 7.63889"/></filter><clipPath id="clip1"><rect x="1353" y="120" width="1245" height="449"/></clipPath><clipPath id="clip2"><rect x="-7" y="-7" width="1260" height="463"/></clipPath><clipPath id="clip3"><rect x="0" y="0" width="1247" height="451"/></clipPath></defs><g clip-path="url(#clip1)" transform="translate(-1353 -120)"><g clip-path="url(#clip2)" filter="url(#fx0)" transform="translate(1352 119)"><g clip-path="url(#clip3)"><path d="M26.7999 92.9015C26.7999 56.2842 56.484 26.6 93.1012 26.6L1153.9 26.6C1190.52 26.6 1220.2 56.2842 1220.2 92.9015L1220.2 358.098C1220.2 394.716 1190.52 424.4 1153.9 424.4L93.1012 424.4C56.484 424.4 26.7999 394.716 26.7999 358.098Z" stroke="#FFC000" stroke-width="5" stroke-miterlimit="8" fill="#B50B17" fill-rule="evenodd"/><path d="M88.1504-37.5676 89.586-40.792C100.877-66.255 109.059-82.8082 114.13-90.4518 114.943-91.503 115.637-92.3271 116.211-92.9242 116.785-93.5212 117.443-94.0586 118.185-94.5364 118.926-95.0141 119.895-95.4919 121.092-95.9697 124.536-97.4508 128.986-98.1914 134.44-98.1914 137.263-98.1914 139.045-97.9521 139.786-97.4736 140.528-96.9951 140.899-95.9184 140.899-94.2436 140.899-92.9517 140.851-91.564 140.755-90.0806 140.373-81.4673 140.181-75.3423 140.181-71.7056 140.181-62.5181 140.803-53.8091 142.047-45.5786 142.861-40.9849 144.057-36.3193 145.636-31.582 147.311-27.3711 148.914-24.1411 150.445-21.8921 152.264-19.4038 153.795-17.5854 155.039-16.437 156.57-14.9058 157.336-13.7334 157.336-12.9199 157.336-11.4365 156.068-9.42676 153.532-6.89062 149.273-2.77539 145.014-0.717773 140.755-0.717773 134.774-0.717773 129.343-3.27783 124.462-8.39795 121.974-10.8862 120-13.6497 118.54-16.6882 117.081-19.7268 115.992-23.4832 115.274-27.9573 114.557-32.4314 114.078-38.1138 113.839-45.0044 113.504-52.4692 113.312-56.6802 113.265-57.6372L112.978-57.6372C109.961-51.8472 107.447-47.0142 105.435-43.1382 103.424-39.2622 101.784-36.0561 100.515-33.52 99.2464-30.9839 97.7499-27.9453 96.0257-24.4043 90.5669-13.1113 86.9994-6.29248 85.3231-3.94775 85.2274-3.85205 85.036-3.63672 84.7488-3.30176 84.4617-2.9668 84.1982-2.70361 83.9582-2.51221 83.1447-1.74658 82.2232-1.1604 81.1936-0.753662 80.1641-0.346924 79.29-0.143555 78.5715-0.143555 76.5602-0.143555 74.3456-1.39966 71.9276-3.91186 69.5096-6.42407 67.3907-9.66601 65.5708-13.6377 63.7031-17.8486 62.1803-22.1446 61.0023-26.5257 59.8243-30.9067 58.7907-36.1018 57.9013-42.1109 57.0119-48.12 56.2308-55.4577 55.5579-64.1241L55.2697-64.1241C53.8311-60.9666 52.7522-58.5983 52.033-57.0192 51.3137-55.4401 50.2107-52.9999 48.7239-49.6985 47.2372-46.3971 46.3738-44.4836 46.1338-43.958 44.1674-39.6035 42.1051-35.2015 39.9469-30.7521 37.7887-26.3027 36.0524-22.88 34.738-20.484 33.4236-18.0881 31.9779-15.7162 30.4011-13.3685 29.684-12.2664 28.4175-10.709 26.6014-8.69627 23.7819-6.01285 20.6992-3.91654 17.3533-2.40734 14.0074-0.898151 10.829-0.143555 7.81812-0.143555 6.67118-0.143555 5.66761-0.430664 4.8074-1.00488 3.94719-1.5791 3.51709-2.3208 3.51709-3.22998 3.51709-4.04346 4.16346-5.12012 5.4562-6.45996 6.17472-7.32129 7.73102-9.52246 10.1251-13.0635L14.2915-19.5234C16.877-23.3516 20.7795-30.2183 25.9991-40.1235L29.4467-46.5835C37.4917-61.9917 42.9268-72.531 45.7519-78.2014 48.577-83.8718 49.9896-87.1616 49.9896-88.0708 49.9896-89.0757 49.2658-90.2002 47.8183-91.4443 46.708-92.3535 46.1528-93.1431 46.1528-93.813 46.1528-94.8657 47.542-95.8586 50.3204-96.7917 53.0988-97.7248 56.1164-98.1914 59.3733-98.1914 65.9365-98.1914 70.6068-96.7319 73.3845-93.813 75.1094-91.9946 76.7143-88.4177 78.1992-83.0823 79.6841-77.7468 81.1723-70.0203 82.6639-59.9027 82.7604-59.3299 82.8327-58.8884 82.881-58.5782 82.9292-58.2679 82.9772-57.9935 83.0251-57.755 83.0729-57.5164 83.0968-57.2062 83.0968-56.8241 83.3862-55.488 83.5309-54.6054 83.5309-54.1762 84.541-48.0198 85.3107-44.0466 85.8401-42.2567 86.3694-40.4667 87.1396-38.9037 88.1504-37.5676ZM187.194-22.3228C189.395-23.8062 191.069-25.2895 192.218-26.7729 194.754-29.8833 196.716-33.4482 198.104-37.4678 199.204-40.0996 200.066-43.0425 200.688-46.2964 201.31-49.5503 201.621-52.5889 201.621-55.4121 201.621-58.0439 201.07-59.3599 199.97-59.3599 198.439-59.3599 196.094-55.9863 192.936-49.2393 191.069-45.1719 189.55-41.1165 188.378-37.073 187.205-33.0295 186.619-29.5483 186.619-26.6294 186.619-25.6245 186.811-24.189 187.194-22.3228ZM187.337-20.0259C187.863-17.1548 189.73-15.7192 192.936-15.7192 196.525-15.7192 201.19-17.8247 206.932-22.0356 210.282-24.4761 212.531-25.6963 213.679-25.6963 215.115-25.6963 216.455-25.3135 217.699-24.5478 218.943-23.7822 219.565-22.9927 219.565-22.1792 219.565-21.3179 218.871-20.1934 217.484-18.8057 214.947-16.2695 212.028-13.7932 208.727-11.3767 205.425-8.9602 202.243-6.95044 199.18-5.34741 196.118-3.74438 193.055-2.47632 189.993-1.54321 186.93-0.610107 184.203-0.143555 181.81-0.143555 175.829-0.143555 171.044-1.85425 167.455-5.27563 163.866-8.69702 162.071-13.2549 162.071-18.9492 162.071-23.3037 163.017-28.2205 164.907-33.6995 166.797-39.1785 169.345-44.3105 172.551-49.0957 176.331-54.6943 180.973-59.3599 186.476-63.0923 193.271-67.5903 199.778-69.8393 205.999-69.8393 210.497-69.8393 214.026-68.4158 216.586-65.5686 219.146-62.7214 220.426-58.8096 220.426-53.833 220.426-49.957 219.41-45.9136 217.376-41.7026 215.342-37.4917 212.34-33.4482 208.368-29.5723 205.114-26.3184 201.92-23.7822 198.786-21.9639 195.651-20.1455 192.912-19.2363 190.567-19.2363 189.514-19.2363 188.438-19.4995 187.337-20.0259ZM255.645-37.8457 259.971-42.8836C264.345-47.7301 267.812-51.3399 270.369-53.713 272.927-56.0861 275.222-57.8 277.254-58.8546 279.286-59.9092 281.353-60.4365 283.456-60.4365 286.851-60.4365 289.241-59.5273 290.628-57.709 292.015-55.8906 292.708-52.7324 292.708-48.2344 292.708-46.3682 292.516-43.6167 292.134-39.98 291.559-35.147 291.272-30.6011 291.272-26.3423 291.272-21.5571 291.512-17.6812 291.99-14.7144 292.325-12.896 292.827-11.0776 293.497-9.25928 293.976-7.53662 294.215-6.36426 294.215-5.74219 294.215-4.97656 293.928-4.37842 293.354-3.94775 291.87-2.65576 289.909-1.53125 287.468-0.574219 285.028 0.382812 282.97 0.861328 281.295 0.861328 278.568 0.861328 276.091-0.0717774 273.866-1.93799 271.641-3.8042 269.919-6.38818 268.698-9.68994 267.478-12.9917 266.868-16.7241 266.868-20.8872 266.868-23.6626 267.155-26.9404 267.729-30.7207L267.442-31.0078C265.385-28.7109 263.722-26.8926 262.454-25.5527 261.186-24.2129 260.001-22.9448 258.901-21.7485 253.541-15.6235 248.995-10.0967 245.263-5.16797 243.827-3.25391 242.512-1.5791 241.315-0.143555 239.545 1.62695 237.535 2.51221 235.286 2.51221 232.223 2.51221 229.735 1.36377 227.821-0.933105 225.907-3.22998 224.95-6.19678 224.95-9.8335 224.95-12.0825 225.213-14.834 225.74-18.0879 226.266-21.3418 226.972-24.823 227.857-28.5315 228.742-32.24 229.795-36.0561 231.015-39.98 232.235-43.9038 233.563-47.6362 234.999-51.1772 237.2-57.063 239.88-61.6567 243.039-64.9585 245.192-67.1118 247.8-68.1885 250.863-68.1885 255.84-68.1885 258.329-64.9585 258.329-58.4985 258.329-53.7612 257.338-46.973 255.358-38.134ZM344.289-22.4663 343.068-21.4614C342.829-21.3179 341.226-20.0977 338.259-17.8008 332.517-13.3027 327.78-9.74975 324.047-7.14184 320.315-4.53394 317.205-2.61987 314.716-1.39966 312.228-0.179443 310.218 0.430664 308.687 0.430664 306.103 0.430664 304.034-0.634033 302.478-2.76343 300.923-4.89282 300.146-7.65625 300.146-11.0537 300.146-16.7959 301.007-23.4832 302.73-31.1155 304.452-38.7478 306.773-46.2725 309.692-53.6894 312.898-61.9199 316.822-66.9443 321.464-68.7627 323.09-69.4805 325.005-69.8393 327.206-69.8393 330.22-69.8393 332.661-68.9074 334.527-67.0434 336.393-65.1794 337.326-62.7181 337.326-59.6593 337.3-57.5561 336.927-55.3327 336.207-52.9891 335.487-50.6455 334.335-47.8474 332.75-44.595L331.887-42.5146C327.772-33.7944 325.714-28.5001 325.714-26.6316 325.714-25.5296 326.097-24.9785 326.862-24.9785 327.58-24.9785 328.513-25.481 329.662-26.4858 330.81-27.4907 332.582-29.333 334.978-32.0127 336.463-33.8311 338.572-36.104 341.303-38.8315L343.962-41.4873 346.263-43.9277C351.102-48.7129 355.056-52.1702 358.123-54.2996 361.19-56.4289 363.729-57.4936 365.742-57.4936 369.576-57.4936 371.492-54.168 371.492-47.5166 371.492-46.1289 371.325-43.6645 370.99-40.1235 370.416-33.2329 370.129-27.395 370.129-22.6099 370.176-21.6528 370.212-20.7795 370.236-19.99 370.26-19.2004 370.272-18.1836 370.272-16.9395 370.607-13.7334 370.846-11.269 370.99-9.54639 371.325-6.81885 371.492-5.45508 371.492-5.45508 371.492-4.01953 370.2-2.75146 367.616-1.65088 365.032-0.550293 362.042 0 358.644 0 355.534 0 352.866-0.610107 350.641-1.83032 348.416-3.05054 346.729-4.85693 345.581-7.24951 344.432-9.64209 343.858-12.561 343.858-16.0063 343.858-16.437 343.906-17.1907 344.002-18.2673 344.097-19.344 344.193-20.7437 344.289-22.4663Z" fill="#FFFFFF" transform="matrix(1.02 0 0 1.02 432.174 280)"/><path d="M92.5901 123.841C92.5901 95.7678 115.348 73.0099 143.421 73.0099L1102.56 73.0099C1130.63 73.0099 1153.39 95.7678 1153.39 123.841L1153.39 327.159C1153.39 355.232 1130.63 377.99 1102.56 377.99L143.421 377.99C115.348 377.99 92.5901 355.232 92.5901 327.159Z" stroke="#FFC000" stroke-width="11" stroke-miterlimit="8" fill="none" fill-rule="evenodd"/></g></g><path d="M1390.5 214.501C1390.5 178.602 1419.6 149.5 1455.5 149.5L2495.5 149.5C2531.4 149.5 2560.5 178.602 2560.5 214.501L2560.5 474.498C2560.5 510.398 2531.4 539.5 2495.5 539.5L1455.5 539.5C1419.6 539.5 1390.5 510.398 1390.5 474.498Z" stroke="#FFC000" stroke-width="4.58333" stroke-miterlimit="8" fill="#B50B17" fill-rule="evenodd"/><text fill="#FFFFFF" font-family="Forte,Forte_MSFontService,sans-serif" font-weight="400" font-size="147" transform="matrix(1 0 0 1 1787.93 398)">Menu</text><path d="M1455 244.834C1455 217.312 1477.31 195 1504.83 195L2445.17 195C2472.69 195 2495 217.312 2495 244.834L2495 444.166C2495 471.688 2472.69 494 2445.17 494L1504.83 494C1477.31 494 1455 471.688 1455 444.166Z" stroke="#FFC000" stroke-width="10.3125" stroke-miterlimit="8" fill="none" fill-rule="evenodd"/></g></svg>