<svg width="1245" height="449" xmlns="http://www.w3.org/2000/svg" xmlns:xlink="http://www.w3.org/1999/xlink" xml:space="preserve" overflow="hidden"><defs><filter id="fx0" x="-10%" y="-10%" width="120%" height="120%" filterUnits="userSpaceOnUse" primitiveUnits="userSpaceOnUse"><feComponentTransfer color-interpolation-filters="sRGB"><feFuncR type="discrete" tableValues="0 0"/><feFuncG type="discrete" tableValues="0 0"/><feFuncB type="discrete" tableValues="0 0"/><feFuncA type="linear" slope="0.4" intercept="0"/></feComponentTransfer><feGaussianBlur stdDeviation="7.63889 7.63889"/></filter><clipPath id="clip1"><rect x="1353" y="1019" width="1245" height="449"/></clipPath><clipPath id="clip2"><rect x="-7" y="-7" width="1260" height="463"/></clipPath><clipPath id="clip3"><rect x="0" y="0" width="1247" height="451"/></clipPath></defs><g clip-path="url(#clip1)" transform="translate(-1353 -1019)"><g clip-path="url(#clip2)" filter="url(#fx0)" transform="translate(1352 1018)"><g clip-path="url(#clip3)"><path d="M26.7999 92.9013C26.7999 56.2841 56.484 26.6 93.1012 26.6L1153.9 26.6C1190.52 26.6 1220.2 56.2841 1220.2 92.9013L1220.2 358.099C1220.2 394.716 1190.52 424.4 1153.9 424.4L93.1012 424.4C56.484 424.4 26.7999 394.716 26.7999 358.099Z" stroke="#FFC000" stroke-width="5" stroke-miterlimit="8" fill="#B50B17" fill-rule="evenodd"/><path d="M47.5166-78.022C44.2148-74.7202 41.8103-72.0046 40.303-69.8752 38.7957-67.7458 37.1807-64.6953 35.458-60.7236 34.166-57.8525 33.2329-54.814 32.6587-51.6079 31.9409-48.7847 31.582-45.1479 31.582-40.6978 31.582-34.4292 32.1802-29.2014 33.3765-25.0144 34.5728-20.8274 36.3433-17.6692 38.688-15.5398 41.0327-13.4104 43.856-12.3457 47.1577-12.3457 49.8374-12.3457 52.5769-13.3267 55.3762-15.2886 58.1755-17.2505 60.7117-19.8225 62.9846-23.0046 65.2576-26.1868 67.0879-29.7397 68.4756-33.6636 69.8633-37.5874 70.5571-41.3677 70.5571-45.0044 70.5571-51.5601 68.3081-58.4028 63.8101-65.5327 62.1352-68.4038 61.2978-70.3657 61.2978-71.4184 61.2978-73.3804 62.3745-75.3423 64.5278-77.3042 66.9683-79.6489 69.7676-81.7305 72.9258-83.5488 76.084-85.3672 78.5723-86.2764 80.3906-86.2764 81.4434-86.2764 82.5559-86.0251 83.7283-85.5227 84.9006-85.0203 85.7978-84.3862 86.4199-83.6206 87.9512-82.0415 89.2192-79.1345 90.2241-74.8997 91.229-70.6648 91.7314-66.1787 91.7314-61.4414 91.7314-50.1484 89.4226-39.7288 84.8049-30.1824 80.1872-20.636 73.9187-13.0754 65.9993-7.50073 58.0798-1.92603 49.5024 0.861328 40.2671 0.861328 34.9556 0.861328 29.6919-0.119629 24.4761-2.08154 19.2603-4.04346 15.0254-6.67529 11.7715-9.97705 6.26855-15.48 3.51709-22.6816 3.51709-31.582 3.51709-36.75 4.52197-42.229 6.53174-48.019 8.5415-53.8091 11.3049-59.4436 14.822-64.9226 18.3391-70.4016 22.4065-75.4141 27.0242-79.96 31.6418-84.5059 36.3911-88.0947 41.272-90.7266 45.7222-93.1191 50.5073-95.0332 55.6274-96.4687 60.7476-97.9043 65.2456-98.6221 69.1216-98.6221 74.5767-98.6221 77.3042-97.7847 77.3042-96.1099 77.3042-95.4399 76.73-94.4111 75.5815-93.0234 73.4761-91.0615 71.6457-89.6738 70.0906-88.8603 68.5354-88.0469 65.9873-87.1377 62.4463-86.1328 58.6182-84.9844 55.8428-83.9436 54.1201-83.0105 52.3975-82.0774 50.1963-80.4145 47.5166-78.022ZM121.45-21.8921 121.163-20.4565C121.163-19.6431 121.068-18.4707 120.876-16.9395 120.685-14.5947 120.422-12.6807 120.087-11.1973 119.752-9.71387 119.249-8.48169 118.579-7.50073 117.909-6.51977 117-5.479 115.852-4.37842 112.359-1.17236 108.841 0.430664 105.3 0.430664 102.429 0.430664 100.312-0.62207 98.9482-2.72754 97.5844-4.83301 96.9025-8.23047 96.9025-12.9199 96.9025-16.6523 97.3212-21.2581 98.1586-26.7371 98.996-32.2161 100.013-37.1328 101.209-41.4873L101.783-43.3535C101.783-43.6406 101.927-44.2388 102.214-45.1479 103.985-51.6558 105.611-56.4768 107.095-59.6111 108.578-62.7454 110.373-65.2695 112.478-67.1836 114.344-68.667 116.45-69.4087 118.795-69.4087 122.192-69.4087 124.25-67.3511 124.967-63.2358 125.637-63.8101 126.283-64.48 126.905-65.2456 128.293-66.9204 129.37-68.033 130.135-68.5832 130.901-69.1335 131.786-69.4087 132.791-69.4087 136.906-69.4087 138.964-65.3413 138.964-57.2065 138.964-52.7563 138.486-48.4497 137.528-44.2866 136.571-40.1235 135.363-36.7261 133.904-34.0942 132.444-31.4624 130.997-30.1465 129.561-30.1465 127.982-30.1465 127.193-33.1372 127.193-39.1186 127.193-42.2769 127.013-44.7532 126.654-46.5476 126.295-48.342 125.733-49.7417 124.967-50.7466 123.532-48.0669 122.599-41.9419 122.168-32.3716 121.833-26.8208 121.594-23.3276 121.45-21.8921ZM190.32-31.582 190.32-35.7451C187.88-33.5918 186.062-32.5151 184.865-32.5151 184.195-32.5151 183.86-32.8501 183.86-33.52 183.86-33.8071 184.004-34.4053 184.291-35.3144 185.296-38.1855 185.798-40.9609 185.798-43.6406 185.798-47.5166 184.961-51.5361 183.286-55.6992 182.568-57.8525 181.683-58.9292 180.63-58.9292 180.104-58.9292 179.673-58.6899 179.338-58.2114 177.759-56.3931 176.252-53.821 174.816-50.4954 173.381-47.1697 172.197-43.5569 171.263-39.657 170.33-35.7571 169.864-32.2998 169.864-29.2852 169.864-23.5908 171.586-20.7437 175.032-20.7437 176.754-20.7437 179.063-21.7605 181.958-23.7942 184.853-25.8279 187.641-28.4238 190.32-31.582ZM192.545-65.6763 193.263-68.6191C194.747-75.1748 196.086-80.4744 197.283-84.5178 198.479-88.5613 199.711-91.9827 200.979-94.782 202.247-97.5813 203.503-99.603 204.748-100.847 206.757-103 210.37-104.077 215.586-104.077 217.883-104.077 219.594-103.958 220.718-103.718 221.843-103.479 222.74-103.048 223.41-102.426 221.113-95.2964 219.522-89.949 218.636-86.384 217.751-82.8191 216.782-77.9263 215.729-71.7056 214.103-61.561 213.289-52.3975 213.289-44.2148 213.289-38.8076 213.732-33.197 214.617-27.3831 215.502-21.5691 216.95-15.0972 218.959-7.96728 216.423-6.19678 213.995-4.68945 211.674-3.44531 209.353-2.20117 207.152-1.22021 205.071-0.502441 202.989 0.215332 201.159 0.574219 199.58 0.574219 196.804 0.574219 194.842-0.789551 193.694-3.51709 192.737-5.76611 192.115-7.57251 191.828-8.93628 191.541-10.3 191.038-14.0923 190.32-20.313 183.908-13.6138 177.771-8.33813 171.909-4.48608 166.048-0.634033 161.37 1.29199 157.877 1.29199 153.857 1.29199 150.568-0.346924 148.008-3.62476 145.448-6.90259 144.167-11.1255 144.167-16.2935 144.167-20.9351 145.16-26.0911 147.146-31.7615 149.132-37.4319 151.872-42.9228 155.365-48.2344 157.662-51.7275 160.018-54.6824 162.435-57.0989 164.851-59.5154 167.591-61.7524 170.653-63.8101 176.204-67.4468 180.846-69.2651 184.578-69.2651 186.396-69.2651 189.052-68.0688 192.545-65.6763ZM253.652-22.3228C255.853-23.8062 257.528-25.2895 258.676-26.7729 261.212-29.8833 263.174-33.4482 264.562-37.4678 265.663-40.0996 266.524-43.0425 267.146-46.2964 267.768-49.5503 268.079-52.5889 268.079-55.4121 268.079-58.0439 267.529-59.3599 266.428-59.3599 264.897-59.3599 262.552-55.9863 259.394-49.2393 257.528-45.1719 256.009-41.1165 254.836-37.073 253.664-33.0295 253.078-29.5483 253.078-26.6294 253.078-25.6245 253.269-24.189 253.652-22.3228ZM253.795-20.0259C254.322-17.1548 256.188-15.7192 259.394-15.7192 262.983-15.7192 267.648-17.8247 273.391-22.0356 276.74-24.4761 278.989-25.6963 280.138-25.6963 281.573-25.6963 282.913-25.3135 284.157-24.5478 285.401-23.7822 286.023-22.9927 286.023-22.1792 286.023-21.3179 285.33-20.1934 283.942-18.8057 281.406-16.2695 278.487-13.7932 275.185-11.3767 271.883-8.9602 268.701-6.95044 265.639-5.34741 262.576-3.74438 259.514-2.47632 256.451-1.54321 253.389-0.610107 250.661-0.143555 248.269-0.143555 242.287-0.143555 237.502-1.85425 233.913-5.27563 230.324-8.69702 228.53-13.2549 228.53-18.9492 228.53-23.3037 229.475-28.2205 231.365-33.6995 233.255-39.1785 235.803-44.3105 239.009-49.0957 242.79-54.6943 247.431-59.3599 252.934-63.0923 259.729-67.5903 266.237-69.8393 272.458-69.8393 276.956-69.8393 280.485-68.4158 283.045-65.5686 285.605-62.7214 286.885-58.8096 286.885-53.833 286.885-49.957 285.868-45.9136 283.834-41.7026 281.801-37.4917 278.798-33.4482 274.826-29.5723 271.572-26.3184 268.378-23.7822 265.244-21.9639 262.11-20.1455 259.37-19.2363 257.025-19.2363 255.973-19.2363 254.896-19.4995 253.795-20.0259ZM315.669-21.8921 315.382-20.4565C315.382-19.6431 315.286-18.4707 315.095-16.9395 314.903-14.5947 314.64-12.6807 314.305-11.1973 313.97-9.71387 313.468-8.48169 312.798-7.50073 312.128-6.51977 311.219-5.479 310.07-4.37842 306.577-1.17236 303.06 0.430664 299.519 0.430664 296.648 0.430664 294.531-0.62207 293.167-2.72754 291.803-4.83301 291.121-8.23047 291.121-12.9199 291.121-16.6523 291.54-21.2581 292.377-26.7371 293.215-32.2161 294.232-37.1328 295.428-41.4873L296.002-43.3535C296.002-43.6406 296.146-44.2388 296.433-45.1479 298.203-51.6558 299.83-56.4768 301.314-59.6111 302.797-62.7454 304.591-65.2695 306.697-67.1836 308.563-68.667 310.669-69.4087 313.013-69.4087 316.411-69.4087 318.468-67.3511 319.186-63.2358 319.856-63.8101 320.502-64.48 321.124-65.2456 322.512-66.9204 323.589-68.033 324.354-68.5832 325.12-69.1335 326.005-69.4087 327.01-69.4087 331.125-69.4087 333.183-65.3413 333.183-57.2065 333.183-52.7563 332.704-48.4497 331.747-44.2866 330.79-40.1235 329.582-36.7261 328.122-34.0942 326.663-31.4624 325.215-30.1465 323.78-30.1465 322.201-30.1465 321.411-33.1372 321.411-39.1186 321.411-42.2769 321.232-44.7532 320.873-46.5476 320.514-48.342 319.952-49.7417 319.186-50.7466 317.751-48.0669 316.818-41.9419 316.387-32.3716 316.052-26.8208 315.813-23.3276 315.669-21.8921ZM418.966-61.5883 416.599-55.8461C413.489-48.4762 410.595-41.1303 407.916-33.8082 406.625-30.2665 404.664-24.0929 402.033-15.2875 406.005-15.6224 411.341-16.4602 418.041-17.8008 422.349-18.6621 424.957-19.0928 425.866-19.0928 427.541-19.0928 428.378-18.4228 428.378-17.083 428.378-15.5039 427.457-13.2908 425.615-10.4436 423.773-7.59643 421.703-5.14404 419.406-3.08643 417.827-1.60303 415.482-0.574219 412.372 0 409.262 0.574219 404.405 0.861328 397.801 0.861328 391.628 0.861328 386.867 0.669922 383.517 0.287109 383.47 0.287109 382.68 0.0478515 381.149-0.430664 378.421-1.5791 377.057-3.97168 377.057-7.6084 377.057-10.2402 377.811-15.0493 379.318-22.0356 380.826-29.022 383.015-37.707 385.886-48.0908 392.394-71.251 397.299-85.5586 400.6-91.0137 401.652-92.8799 402.98-94.3274 404.582-95.3562 406.184-96.385 408.372-97.1865 411.146-97.7607 413.825-98.335 416.91-98.6221 420.402-98.6221 423.656-98.6221 425.941-98.2034 427.257-97.366 428.573-96.5286 429.231-95.081 429.231-93.0234 429.231-91.0623 428.369-87.3902 426.647-82.0073 424.924-76.6244 422.364-69.818 418.966-61.5883ZM445.104 0.717773C442.952 0.574219 440.993-0.406738 439.225-2.2251 437.456-4.13916 436.202-6.20874 435.461-8.43384 434.721-10.6589 434.35-13.542 434.35-17.083 434.35-24.9785 435.822-33.8909 438.765-43.8201 441.708-53.7493 445.045-60.939 448.777-65.3892 450.259-67.2554 452.316-68.1885 454.947-68.1885 457.722-68.1885 459.958-66.9206 461.657-64.3848 463.355-61.8491 464.204-58.5236 464.204-54.4083 464.204-48.3319 463.329-41.2148 461.579-33.0568 459.829-24.8989 457.372-16.4179 454.207-7.61401 452.964-4.07075 451.435-1.67667 449.619-0.431786 448.376 0.334587 446.919 0.717773 445.246 0.717773ZM453.73-71.4184C449.232-71.562 446.983-74.2656 446.983-79.5293 446.983-82.1611 447.641-85.2117 448.957-88.6809 450.273-92.1501 451.768-94.7222 453.443-96.397 454.305-97.3061 455.178-97.9521 456.063-98.335 456.948-98.7178 458.085-98.9092 459.473-98.9092 461.865-98.9092 463.624-98.323 464.748-97.1506 465.873-95.9783 466.435-94.0283 466.435-91.3008 466.435-87.9033 465.849-84.6853 464.676-81.6467 463.504-78.6081 461.937-76.1438 459.975-74.2537 458.013-72.3635 456.003-71.4184 453.946-71.4184ZM492.622 3.08643C495.445 2.94287 498.017 1.56714 500.338-1.04077 502.659-3.64868 503.819-6.48389 503.819-9.54639 503.819-11.6519 503.125-13.3267 501.738-14.5708 500.254-16.0542 496.929-17.5137 491.761-18.9492 484.152-21.1504 479.2-23.6147 476.903-26.3423 474.75-28.5435 473.673-31.1753 473.673-34.2378 473.673-39.7407 475.671-45.2436 479.666-50.7466 483.662-56.2495 488.77-60.7595 494.991-64.2766 501.211-67.7937 507.48-69.5522 513.796-69.5522 516.859-69.5522 519.73-68.8345 522.41-67.3989 525.089-65.9634 527.219-64.0613 528.798-61.6926 530.377-59.324 531.167-56.7519 531.167-53.9766 531.167-51.249 530.305-48.4258 528.583-45.5068 526.86-42.5879 524.695-40.1594 522.087-38.2214 519.479-36.2834 517.002-35.3144 514.658-35.3144 513.318-35.3144 512.157-35.6016 511.177-36.1758 510.196-36.75 509.705-37.3721 509.705-38.042 509.705-38.7119 509.896-39.6929 510.279-40.9849 511.332-45.1001 511.858-48.689 511.858-51.7515 511.858-54.7661 510.949-57.6133 509.131-60.293 506.786-58.6675 505.255-57.377 504.537-56.4215 502.719-54.3182 501.307-51.9279 500.302-49.2505 499.202-46.5259 498.651-43.9449 498.651-41.5075 498.651-39.7863 499.047-38.4119 499.84-37.3842 500.632-36.3565 501.925-35.4832 503.719-34.7643 505.513-34.0454 508.228-33.2546 511.864-32.3918 517.94-30.9061 522.222-29.4691 524.709-28.0806 525.283-27.7457 526.168-27.0518 527.363-25.9991 529.181-24.0364 530.09-21.4992 530.09-18.3873 530.09-15.0841 529.061-11.7451 527.003-8.37047 524.946-4.99581 521.764-1.51331 517.457 2.07706 512.863 5.95453 508.293 8.73104 503.748 10.4066 499.202 12.0821 494.177 12.9199 488.674 12.9199 483.363 12.9199 479.188 11.8672 476.149 9.76172 473.111 7.65625 471.591 4.78516 471.591 1.14844 471.591-1.43555 472.596-4.05542 474.606-6.71118 476.616-9.36694 479.116-11.5322 482.107-13.207 485.097-14.8818 488.028-15.7192 490.899-15.7192 493.053-15.7192 494.129-15.2407 494.129-14.2837 494.129-13.8052 493.818-13.0156 493.196-11.915 491.33-8.56543 490.397-5.479 490.397-2.65576 490.397-0.645996 491.139 1.26807 492.622 3.08643ZM550.756-69.4087 551.043-70.27C554.205-79.1704 556.935-85.439 559.235-89.0757 560.337-90.7983 561.871-92.3296 563.835-93.6694 567.524-96.0142 570.997-97.1865 574.255-97.1865 576.171-97.1865 577.632-96.7553 578.638-95.8928 579.644-95.0304 580.147-93.7846 580.147-92.1554 580.147-91.0533 579.425-88.8065 577.98-85.415 575.525-79.77 573.696-74.4836 572.492-69.5556 573.306-69.4599 574.097-69.3163 574.864-69.1249 577.739-68.6943 579.631-68.2036 580.541-67.6529 581.452-67.1023 581.907-66.1092 581.907-64.6736 581.907-62.1367 581.261-59.7913 579.97-57.6372 578.679-55.4831 576.981-53.9033 574.877-52.8977 573.3-52.1799 570.741-51.7014 567.203-51.4621 566.587-49.5951 565.901-47.0336 565.145-43.7774 564.718-40.9049 564.245-36.9313 563.725-31.8568 563.437-29.9921 563.293-28.2466 563.293-26.6204 563.293-19.0659 566.954-15.2886 574.276-15.2886L574.707-15.2886 574.922-15.2886C575.783-15.2886 576.214-15.145 576.214-14.8579 576.214-14.0923 575.401-12.8003 573.774-10.9819 572.147-9.16357 570.352-7.56055 568.39-6.17285 566.285-4.7373 563.986-3.58887 561.494-2.72754 559.002-1.86621 556.749-1.43555 554.736-1.43555 549.702-1.43555 545.615-3.13428 542.474-6.53174 539.334-9.9292 537.764-14.4272 537.764-20.0259 537.764-22.4185 538.183-25.5527 539.02-29.4287 539.857-33.3047 541.161-38.4966 542.932-45.0044 543.219-46.1528 543.53-47.3611 543.865-48.6291 544.2-49.8972 544.391-50.6509 544.439-50.8901 542.525-50.938 541.161-51.3447 540.348-52.1103 539.534-52.876 539.128-54.1201 539.128-55.8428 539.128-58.8574 540.288-61.7046 542.609-64.3843 544.93-67.064 547.645-68.7388 550.756-69.4087Z" fill="#FFFFFF" transform="matrix(1.02 0 0 1.02 325.233 280)"/><path d="M92.5901 123.671C92.5901 95.6917 115.272 73.0101 143.251 73.0101L1102.73 73.0101C1130.71 73.0101 1153.39 95.6917 1153.39 123.671L1153.39 326.309C1153.39 354.288 1130.71 376.97 1102.73 376.97L143.251 376.97C115.272 376.97 92.5901 354.288 92.5901 326.309Z" stroke="#FFC000" stroke-width="11" stroke-miterlimit="8" fill="none" fill-rule="evenodd"/></g></g><path d="M1390.5 1113.5C1390.5 1077.6 1419.6 1048.5 1455.5 1048.5L2495.5 1048.5C2531.4 1048.5 2560.5 1077.6 2560.5 1113.5L2560.5 1373.5C2560.5 1409.4 2531.4 1438.5 2495.5 1438.5L1455.5 1438.5C1419.6 1438.5 1390.5 1409.4 1390.5 1373.5Z" stroke="#FFC000" stroke-width="4.58333" stroke-miterlimit="8" fill="#B50B17" fill-rule="evenodd"/><text fill="#FFFFFF" font-family="Forte,Forte_MSFontService,sans-serif" font-weight="400" font-size="147" transform="matrix(1 0 0 1 1683.08 1297)">Order List</text><path d="M1455 1143.67C1455 1116.24 1477.24 1094 1504.67 1094L2445.33 1094C2472.76 1094 2495 1116.24 2495 1143.67L2495 1342.33C2495 1369.76 2472.76 1392 2445.33 1392L1504.67 1392C1477.24 1392 1455 1369.76 1455 1342.33Z" stroke="#FFC000" stroke-width="10.3125" stroke-miterlimit="8" fill="none" fill-rule="evenodd"/></g></svg>