<svg width="1245" height="448" xmlns="http://www.w3.org/2000/svg" xmlns:xlink="http://www.w3.org/1999/xlink" xml:space="preserve" overflow="hidden"><defs><filter id="fx0" x="-10%" y="-10%" width="120%" height="120%" filterUnits="userSpaceOnUse" primitiveUnits="userSpaceOnUse"><feComponentTransfer color-interpolation-filters="sRGB"><feFuncR type="discrete" tableValues="0 0"/><feFuncG type="discrete" tableValues="0 0"/><feFuncB type="discrete" tableValues="0 0"/><feFuncA type="linear" slope="0.4" intercept="0"/></feComponentTransfer><feGaussianBlur stdDeviation="7.63889 7.63889"/></filter><clipPath id="clip1"><rect x="1353" y="570" width="1245" height="448"/></clipPath><clipPath id="clip2"><rect x="-7" y="-7" width="1260" height="463"/></clipPath><clipPath id="clip3"><rect x="0" y="0" width="1247" height="450"/></clipPath></defs><g clip-path="url(#clip1)" transform="translate(-1353 -570)"><g clip-path="url(#clip2)" filter="url(#fx0)" transform="translate(1352 569)"><g clip-path="url(#clip3)"><path d="M26.7999 92.7417C26.7999 56.2182 56.4081 26.61 92.9316 26.61L1154.07 26.61C1190.59 26.61 1220.2 56.2182 1220.2 92.7417L1220.2 357.258C1220.2 393.782 1190.59 423.39 1154.07 423.39L92.9316 423.39C56.4081 423.39 26.7999 393.782 26.7999 357.258Z" stroke="#FFC000" stroke-width="5" stroke-miterlimit="8" fill="#B50B17" fill-rule="evenodd"/><path d="M27.0601-82.1851 28.0649-84.6973C26.4858-84.6973 25.146-84.5657 24.0454-84.3025 22.9448-84.0393 21.6528-83.6206 20.1694-83.0464 18.3511-82.3765 17.1069-82.0415 16.437-82.0415 15.6235-82.0415 14.9536-82.3525 14.4272-82.9746 13.9009-83.5967 13.6377-84.3623 13.6377-85.2715 13.6377-87.1377 14.3914-89.0637 15.8987-91.0496 17.406-93.0354 19.2603-94.4351 21.4614-95.2485 24.3325-96.397 28.029-97.3181 32.551-98.012 37.073-98.7058 41.5591-99.0527 46.0093-99.0527 51.0337-99.0527 55.5437-98.6938 59.5393-97.9761 63.5349-97.2583 67.0879-96.1099 70.1982-94.5308 73.3086-92.9517 76.0361-90.9897 78.3809-88.645 80.7256-86.3003 82.532-83.5727 83.8-80.4624 85.0681-77.352 85.7021-74.0503 85.7021-70.5571 85.7021-67.3989 85.0681-63.8579 83.8-59.9341 82.532-56.0102 80.7734-52.1821 78.5244-48.4497 76.2754-44.7173 73.811-41.5591 71.1313-38.9751 68.021-35.9604 64.0852-33.4123 59.324-31.3308 54.5627-29.2493 50.2202-28.2085 46.2964-28.2085 44.6216-28.2085 43.1501-28.5076 41.8821-29.1057 40.614-29.7039 39.98-30.4336 39.98-31.2949 39.98-32.6348 40.4824-33.8909 41.4873-35.0632 42.4922-36.2356 44.3345-37.6831 47.0142-39.4058 49.311-40.7449 51.4644-42.3475 53.4741-44.2137 55.8667-46.8456 57.6252-49.6449 58.7497-52.6117 59.8743-55.5785 60.4365-59.1195 60.4365-63.2347 60.4365-67.1578 59.767-70.4831 58.4279-73.2106 57.0888-75.9382 54.913-78.3786 51.9006-80.5319L42.0694-48.6628 40.2749-43.0642C39.5093-40.863 38.4805-37.0827 37.1885-31.7233 34.8445-22.488 32.6434-16.0763 30.585-12.4881 29.6758-10.909 28.5031-9.35386 27.0668-7.82261 24.7692-5.81284 21.8612-4.05448 18.343-2.54753 14.8248-1.04058 11.7973-0.287109 9.2604-0.287109 7.58559-0.287109 6.25753-0.777588 5.2762-1.75854 4.29486-2.7395 3.8042-4.11523 3.8042-5.88574 3.8042-7.84766 4.29468-10.7187 5.27563-14.499 6.25659-18.2793 8.27832-25.0503 11.3408-34.812L12.6328-38.8315 13.9966-43.21ZM115.148-21.8921 114.861-20.4565C114.861-19.6431 114.765-18.4707 114.574-16.9395 114.383-14.5947 114.119-12.6807 113.785-11.1973 113.45-9.71387 112.947-8.48169 112.277-7.50073 111.607-6.51977 110.698-5.479 109.55-4.37842 106.056-1.17236 102.539 0.430664 98.9984 0.430664 96.1273 0.430664 94.0098-0.62207 92.6461-2.72754 91.2823-4.83301 90.6004-8.23047 90.6004-12.9199 90.6004-16.6523 91.0191-21.2581 91.8565-26.7371 92.6939-32.2161 93.7108-37.1328 94.9071-41.4873L95.4813-43.3535C95.4813-43.6406 95.6248-44.2388 95.9119-45.1479 97.6824-51.6558 99.3094-56.4768 100.793-59.6111 102.276-62.7454 104.071-65.2695 106.176-67.1836 108.042-68.667 110.148-69.4087 112.493-69.4087 115.89-69.4087 117.948-67.3511 118.665-63.2358 119.335-63.8101 119.981-64.48 120.603-65.2456 121.991-66.9204 123.068-68.033 123.833-68.5832 124.599-69.1335 125.484-69.4087 126.489-69.4087 130.604-69.4087 132.662-65.3413 132.662-57.2065 132.662-52.7563 132.183-48.4497 131.226-44.2866 130.269-40.1235 129.061-36.7261 127.602-34.0942 126.142-31.4624 124.695-30.1465 123.259-30.1465 121.68-30.1465 120.89-33.1372 120.89-39.1186 120.89-42.2769 120.711-44.7532 120.352-46.5476 119.993-48.342 119.431-49.7417 118.665-50.7466 117.23-48.0669 116.297-41.9419 115.866-32.3716 115.531-26.8208 115.292-23.3276 115.148-21.8921ZM186.243-72.208C193.373-72.208 196.938-71.3706 196.938-69.6958 196.938-67.7817 195.335-66.7529 192.129-66.6094 188.253-66.3701 184.64-65.2695 181.291-63.3076 177.941-61.3457 174.962-58.666 172.354-55.2685 169.746-51.8711 167.713-48.043 166.253-43.7842 164.794-39.5254 164.064-35.0273 164.064-30.29 164.064-25.0742 165.284-20.8752 167.725-17.6931 170.165-14.511 173.347-12.9199 177.271-12.9199 180.908-12.9199 184.09-14.7861 186.818-18.5186 189.545-22.251 190.909-26.6055 190.909-31.582 190.909-35.6494 190.059-39.4656 188.361-43.0305 186.662-46.5955 184.186-49.5981 180.932-52.0386 179.544-53.1392 178.85-53.9287 178.85-54.4072 178.85-55.0771 179.831-56.1059 181.793-57.4936 183.994-58.977 186.459-60.2212 189.186-61.2261 191.914-62.2309 194.211-62.7334 196.077-62.7334 198.23-62.7334 200.276-62.1711 202.214-61.0466 204.152-59.9221 205.862-58.3191 207.346-56.2375 208.829-54.156 209.966-51.7634 210.755-49.0598 211.545-46.3562 211.94-43.4731 211.94-40.4106 211.94-35.3384 210.983-30.3259 209.069-25.3733 207.154-20.4207 204.642-16.4131 201.532-13.3506 197.512-9.47461 192.667-6.30444 186.997-3.84009 181.327-1.37573 175.931-0.143555 170.811-0.143555 165.835-0.143555 160.894-1.00488 155.989-2.72754 151.084-4.45019 147.196-6.72314 144.325-9.54639 140.497-13.3745 138.583-18.8057 138.583-25.8398 138.583-31.3906 139.947-36.9414 142.674-42.4922 145.402-48.043 149.099-53.0793 153.764-57.6013 158.43-62.1233 163.574-65.6882 169.196-68.2961 174.819-70.904 180.501-72.208 186.243-72.208ZM296.312-25.9834 276.717-5.88574C274.181-3.34961 272.135-1.61499 270.58-0.681885 269.025 0.251221 267.314 0.717773 265.448 0.717773 262.529 0.717773 260.077-0.37085 258.091-2.5481 256.105-4.72534 255.112-7.39307 255.112-10.5513 255.112-12.5132 255.411-14.6545 256.009-16.9753 256.607-19.2961 257.792-22.7534 259.562-27.3472 259.897-28.3042 260.22-29.1296 260.531-29.8235 260.842-30.5173 261.094-31.1035 261.285-31.582L260.998-31.8691C256.356-26.9883 251.81-21.8442 247.36-16.437 243.628-11.9868 240.661-8.66113 238.46-6.45996 236.259-4.25879 234.273-2.60791 232.502-1.50732 230.732-0.406738 229.153 0.143555 227.765 0.143555 224.655 0.143555 222.19-1.07666 220.372-3.51709 218.554-5.95752 217.644-9.2832 217.644-13.4941 217.644-18.8057 219.941-27.395 224.535-39.2622 228.65-49.7895 231.832-56.8476 234.079-60.4365 237.379-65.4131 241.158-67.9014 245.414-67.9014 247.997-67.9014 250.137-67.2916 251.834-66.0722 253.532-64.8527 254.381-63.2624 254.381-61.3012 254.381-57.7138 253.023-52.2378 250.306-44.8732 249.258-42.1479 248.186-39.0637 247.089-35.6206L247.376-35.3335C249.145-37.2939 251.99-40.6656 255.911-45.4485 262.652-53.7694 267.746-59.4365 271.192-62.4496 275.644-66.5626 279.713-68.6191 283.398-68.6191 285.026-68.6191 286.581-68.0686 288.065-66.9677 289.549-65.8667 290.734-64.3949 291.619-62.5523 292.505-60.7096 292.948-58.7834 292.948-56.7736 292.948-54.7153 291.47-49.449 288.513-40.9748 287.893-39.2035 287.417-37.8151 287.083-36.8094 286.75-35.8038 286.44-34.9421 286.154-34.2243L286.511-33.9372C287.181-34.6071 287.778-35.2055 288.304-35.7322 288.829-36.259 289.414-36.8216 290.059-37.4201 290.704-38.0186 291.313-38.5814 291.887-39.1086 293.177-40.3534 296.425-43.6335 301.633-48.9488 305.072-52.7791 307.773-55.4001 309.735-56.8118 311.697-58.2234 313.587-58.9292 315.405-58.9292 318.372-58.9292 320.633-57.9123 322.188-55.8787 323.743-53.845 324.521-50.8423 324.521-46.8706 324.521-44.4302 324.138-40.5781 323.372-35.3144 322.702-29.3809 322.236-24.7273 321.973-21.3538 321.71-17.9802 321.578-15.6235 321.578-14.2837 321.578-13.2788 321.638-11.9988 321.757-10.4436 321.877-8.88843 322.08-7.22558 322.367-5.45508 322.655-3.68457 323.037-1.72266 323.516 0.430664 324.09 3.0625 324.473 5.12012 324.664 6.60352 324.282 8.32617 323.025 9.78564 320.896 10.9819 318.767 12.1782 316.458 12.7764 313.97 12.7764 310.046 12.7764 306.361 11.0059 302.916 7.46484 301.385 5.83789 300.2 4.19897 299.363 2.5481 298.525 0.897217 297.927-1.0647 297.568-3.33765 297.21-5.6106 297.03-8.61328 297.03-12.3457 297.03-14.7861 297.317-19.8345 297.891-27.4907L297.604-27.7778ZM378.743-72.208C385.873-72.208 389.438-71.3706 389.438-69.6958 389.438-67.7817 387.835-66.7529 384.629-66.6094 380.753-66.3701 377.14-65.2695 373.791-63.3076 370.441-61.3457 367.462-58.666 364.854-55.2685 362.246-51.8711 360.213-48.043 358.753-43.7842 357.294-39.5254 356.564-35.0273 356.564-30.29 356.564-25.0742 357.784-20.8752 360.225-17.6931 362.665-14.511 365.847-12.9199 369.771-12.9199 373.408-12.9199 376.59-14.7861 379.318-18.5186 382.045-22.251 383.409-26.6055 383.409-31.582 383.409-35.6494 382.559-39.4656 380.861-43.0305 379.162-46.5955 376.686-49.5981 373.432-52.0386 372.044-53.1392 371.35-53.9287 371.35-54.4072 371.35-55.0771 372.331-56.1059 374.293-57.4936 376.494-58.977 378.959-60.2212 381.686-61.2261 384.414-62.2309 386.711-62.7334 388.577-62.7334 390.73-62.7334 392.776-62.1711 394.714-61.0466 396.652-59.9221 398.362-58.3191 399.846-56.2375 401.329-54.156 402.466-51.7634 403.255-49.0598 404.045-46.3562 404.44-43.4731 404.44-40.4106 404.44-35.3384 403.483-30.3259 401.568-25.3733 399.654-20.4207 397.142-16.4131 394.032-13.3506 390.012-9.47461 385.167-6.30444 379.497-3.84009 373.827-1.37573 368.431-0.143555 363.311-0.143555 358.335-0.143555 353.394-1.00488 348.489-2.72754 343.584-4.45019 339.696-6.72314 336.825-9.54639 332.997-13.3745 331.083-18.8057 331.083-25.8398 331.083-31.3906 332.447-36.9414 335.174-42.4922 337.902-48.043 341.599-53.0793 346.264-57.6013 350.93-62.1233 356.074-65.6882 361.696-68.2961 367.319-70.904 373.001-72.208 378.743-72.208ZM424.141-69.4087 424.428-70.27C427.59-79.1704 430.321-85.439 432.621-89.0757 433.723-90.7983 435.256-92.3296 437.22-93.6694 440.909-96.0142 444.382-97.1865 447.64-97.1865 449.556-97.1865 451.018-96.7553 452.024-95.8928 453.03-95.0304 453.533-93.7846 453.533-92.1554 453.533-91.0533 452.81-88.8065 451.366-85.415 448.91-79.77 447.081-74.4836 445.877-69.5556 446.691-69.4599 447.482-69.3163 448.249-69.1249 451.124-68.6943 453.016-68.2036 453.927-67.6529 454.837-67.1023 455.292-66.1092 455.292-64.6736 455.292-62.1367 454.647-59.7913 453.355-57.6372 452.064-55.4831 450.367-53.9033 448.263-52.8977 446.685-52.1799 444.127-51.7014 440.588-51.4621 439.973-49.5951 439.287-47.0336 438.53-43.7774 438.104-40.9049 437.631-36.9313 437.11-31.8568 436.822-29.9921 436.678-28.2466 436.678-26.6204 436.678-19.0659 440.339-15.2886 447.661-15.2886L448.092-15.2886 448.307-15.2886C449.169-15.2886 449.599-15.145 449.599-14.8579 449.599-14.0923 448.786-12.8003 447.159-10.9819 445.532-9.16357 443.738-7.56055 441.776-6.17285 439.67-4.7373 437.371-3.58887 434.879-2.72754 432.387-1.86621 430.135-1.43555 428.121-1.43555 423.087-1.43555 419-3.13428 415.86-6.53174 412.719-9.9292 411.149-14.4272 411.149-20.0259 411.149-22.4185 411.568-25.5527 412.405-29.4287 413.243-33.3047 414.547-38.4966 416.317-45.0044 416.604-46.1528 416.915-47.3611 417.25-48.6291 417.585-49.8972 417.777-50.6509 417.824-50.8901 415.91-50.938 414.547-51.3447 413.733-52.1103 412.92-52.876 412.513-54.1201 412.513-55.8428 412.513-58.8574 413.673-61.7046 415.994-64.3843 418.315-67.064 421.031-68.7388 424.141-69.4087ZM471.458 0.717773C469.307 0.574219 467.347-0.406738 465.579-2.2251 463.81-4.13916 462.556-6.20874 461.815-8.43384 461.075-10.6589 460.704-13.542 460.705-17.083 460.704-24.9785 462.176-33.8909 465.119-43.8201 468.062-53.7493 471.399-60.939 475.131-65.3892 476.613-67.2554 478.67-68.1885 481.301-68.1885 484.076-68.1885 486.312-66.9206 488.011-64.3848 489.709-61.8491 490.558-58.5236 490.558-54.4083 490.558-48.3319 489.683-41.2148 487.933-33.0568 486.183-24.8989 483.726-16.4179 480.561-7.61401 479.318-4.07075 477.789-1.67667 475.973-0.431786 474.73 0.334587 473.273 0.717773 471.6 0.717773ZM480.084-71.4184C475.586-71.562 473.337-74.2656 473.337-79.5293 473.337-82.1611 473.995-85.2117 475.311-88.6809 476.627-92.1501 478.122-94.7222 479.797-96.397 480.659-97.3061 481.532-97.9521 482.417-98.335 483.302-98.7178 484.439-98.9092 485.827-98.9092 488.219-98.9092 489.978-98.323 491.102-97.1506 492.227-95.9783 492.789-94.0283 492.789-91.3008 492.789-87.9033 492.203-84.6853 491.03-81.6467 489.858-78.6081 488.291-76.1438 486.329-74.2537 484.367-72.3635 482.357-71.4184 480.3-71.4184ZM545.462-72.208C552.592-72.208 556.157-71.3706 556.157-69.6958 556.157-67.7817 554.554-66.7529 551.348-66.6094 547.472-66.3701 543.859-65.2695 540.509-63.3076 537.16-61.3457 534.181-58.666 531.573-55.2685 528.965-51.8711 526.931-48.043 525.472-43.7842 524.013-39.5254 523.283-35.0273 523.283-30.29 523.283-25.0742 524.503-20.8752 526.943-17.6931 529.384-14.511 532.566-12.9199 536.49-12.9199 540.127-12.9199 543.309-14.7861 546.036-18.5186 548.764-22.251 550.128-26.6055 550.128-31.582 550.128-35.6494 549.278-39.4656 547.579-43.0305 545.881-46.5955 543.404-49.5981 540.15-52.0386 538.763-53.1392 538.069-53.9287 538.069-54.4072 538.069-55.0771 539.05-56.1059 541.012-57.4936 543.213-58.977 545.677-60.2212 548.405-61.2261 551.132-62.2309 553.429-62.7334 555.295-62.7334 557.449-62.7334 559.494-62.1711 561.432-61.0466 563.37-59.9221 565.081-58.3191 566.565-56.2375 568.048-54.156 569.184-51.7634 569.974-49.0598 570.763-46.3562 571.158-43.4731 571.158-40.4106 571.158-35.3384 570.201-30.3259 568.287-25.3733 566.373-20.4207 563.861-16.4131 560.751-13.3506 556.731-9.47461 551.886-6.30444 546.216-3.84009 540.545-1.37573 535.15-0.143555 530.03-0.143555 525.053-0.143555 520.113-1.00488 515.208-2.72754 510.303-4.45019 506.415-6.72314 503.544-9.54639 499.716-13.3745 497.802-18.8057 497.802-25.8398 497.802-31.3906 499.166-36.9414 501.893-42.4922 504.621-48.043 508.317-53.0793 512.983-57.6013 517.648-62.1233 522.792-65.6882 528.415-68.2961 534.037-70.904 539.72-72.208 545.462-72.208ZM607.989-37.8457 612.314-42.8836C616.689-47.7301 620.155-51.3399 622.713-53.713 625.271-56.0861 627.566-57.8 629.598-58.8546 631.629-59.9092 633.697-60.4365 635.8-60.4365 639.195-60.4365 641.585-59.5273 642.972-57.709 644.358-55.8906 645.052-52.7324 645.052-48.2344 645.052-46.3682 644.86-43.6167 644.477-39.98 643.903-35.147 643.616-30.6011 643.616-26.3423 643.616-21.5571 643.855-17.6812 644.334-14.7144 644.669-12.896 645.171-11.0776 645.841-9.25928 646.32-7.53662 646.559-6.36426 646.559-5.74219 646.559-4.97656 646.272-4.37842 645.698-3.94775 644.214-2.65576 642.252-1.53125 639.812-0.574219 637.371 0.382812 635.314 0.861328 633.639 0.861328 630.911 0.861328 628.435-0.0717774 626.21-1.93799 623.985-3.8042 622.262-6.38818 621.042-9.68994 619.822-12.9917 619.212-16.7241 619.212-20.8872 619.212-23.6626 619.499-26.9404 620.073-30.7207L619.786-31.0078C617.728-28.7109 616.065-26.8926 614.797-25.5527 613.529-24.2129 612.345-22.9448 611.244-21.7485 605.885-15.6235 601.339-10.0967 597.607-5.16797 596.171-3.25391 594.855-1.5791 593.659-0.143555 591.888 1.62695 589.879 2.51221 587.63 2.51221 584.567 2.51221 582.079 1.36377 580.165-0.933105 578.251-3.22998 577.294-6.19678 577.294-9.8335 577.294-12.0825 577.557-14.834 578.083-18.0879 578.61-21.3418 579.315-24.823 580.201-28.5315 581.086-32.24 582.139-36.0561 583.359-39.98 584.579-43.9038 585.907-47.6362 587.343-51.1772 589.544-57.063 592.224-61.6567 595.383-64.9585 597.536-67.1118 600.144-68.1885 603.206-68.1885 608.184-68.1885 610.672-64.9585 610.672-58.4985 610.672-53.7612 609.682-46.973 607.701-38.134Z" fill="#FFFFFF" transform="matrix(1.02 0 0 1.02 258.615 280)"/><path d="M25.1221 3.08643C27.9453 2.94287 30.5173 1.56714 32.8381-1.04077 35.1589-3.64868 36.3193-6.48389 36.3193-9.54639 36.3193-11.6519 35.6255-13.3267 34.2378-14.5708 32.7544-16.0542 29.4287-17.5137 24.2607-18.9492 16.6523-21.1504 11.6997-23.6147 9.40283-26.3423 7.24951-28.5435 6.17285-31.1753 6.17285-34.2378 6.17285-39.7407 8.17065-45.2436 12.1663-50.7466 16.1619-56.2495 21.27-60.7595 27.4907-64.2766 33.7114-67.7937 39.98-69.5522 46.2964-69.5522 49.3589-69.5522 52.23-68.8345 54.9097-67.3989 57.5893-65.9634 59.7187-64.0613 61.2978-61.6926 62.8769-59.324 63.6665-56.7519 63.6665-53.9766 63.6665-51.249 62.8052-48.4258 61.0825-45.5068 59.3599-42.5879 57.1946-40.1594 54.5867-38.2214 51.9788-36.2834 49.5024-35.3144 47.1577-35.3144 45.8179-35.3144 44.6575-35.6016 43.6765-36.1758 42.6956-36.75 42.2051-37.3721 42.2051-38.042 42.2051-38.7119 42.3965-39.6929 42.7793-40.9849 43.832-45.1001 44.3584-48.689 44.3584-51.7515 44.3584-54.7661 43.4492-57.6133 41.6309-60.293 39.2861-58.6675 37.7549-57.377 37.0371-56.4215 35.2187-54.3182 33.8071-51.9279 32.8022-49.2505 31.7017-46.5259 31.1514-43.9449 31.1514-41.5075 31.1514-39.7863 31.5474-38.4119 32.3396-37.3842 33.1318-36.3565 34.4249-35.4832 36.219-34.7643 38.013-34.0454 40.728-33.2546 44.364-32.3918 50.4404-30.9061 54.722-29.4691 57.2088-28.0806 57.783-27.7457 58.6679-27.0518 59.8634-25.9991 61.681-24.0364 62.5898-21.4992 62.5898-18.3873 62.5898-15.0841 61.561-11.7451 59.5034-8.37047 57.4458-4.99581 54.2637-1.51331 49.957 2.07706 45.3633 5.95453 40.7935 8.73104 36.2476 10.4066 31.7017 12.0821 26.6772 12.9199 21.1743 12.9199 15.8628 12.9199 11.6877 11.8672 8.64917 9.76172 5.61059 7.65625 4.09131 4.78516 4.09131 1.14844 4.09131-1.43555 5.09619-4.05542 7.10596-6.71118 9.11572-9.36694 11.616-11.5322 14.6067-13.207 17.5974-14.8818 20.5283-15.7192 23.3994-15.7192 25.5527-15.7192 26.6294-15.2407 26.6294-14.2837 26.6294-13.8052 26.3184-13.0156 25.6963-11.915 23.8301-8.56543 22.897-5.479 22.897-2.65576 22.897-0.645996 23.6387 1.26807 25.1221 3.08643Z" fill="#FFFFFF" transform="matrix(1.02 0 0 1.02 920.127 280)"/><path d="M92.5901 122.831C92.5901 94.7577 115.348 71.9998 143.421 71.9998L1102.56 71.9998C1130.63 71.9998 1153.39 94.7577 1153.39 122.831L1153.39 326.149C1153.39 354.222 1130.63 376.98 1102.56 376.98L143.421 376.98C115.348 376.98 92.5901 354.222 92.5901 326.149Z" stroke="#FFC000" stroke-width="11" stroke-miterlimit="8" fill="none" fill-rule="evenodd"/></g></g><path d="M1390.5 664.335C1390.5 628.528 1419.53 599.5 1455.33 599.5L2495.67 599.5C2531.47 599.5 2560.5 628.528 2560.5 664.335L2560.5 923.665C2560.5 959.473 2531.47 988.5 2495.67 988.5L1455.33 988.5C1419.53 988.5 1390.5 959.473 1390.5 923.665Z" stroke="#FFC000" stroke-width="4.58333" stroke-miterlimit="8" fill="#B50B17" fill-rule="evenodd"/><text fill="#FFFFFF" font-family="Forte,Forte_MSFontService,sans-serif" font-weight="400" font-size="147" transform="matrix(1 0 0 1 1617.77 848)">Promotion<tspan font-size="147" x="648.542" y="0">s</tspan></text><path d="M1455 693.834C1455 666.311 1477.31 644 1504.83 644L2445.17 644C2472.69 644 2495 666.311 2495 693.834L2495 893.165C2495 920.688 2472.69 943 2445.17 943L1504.83 943C1477.31 943 1455 920.688 1455 893.165Z" stroke="#FFC000" stroke-width="10.3125" stroke-miterlimit="8" fill="none" fill-rule="evenodd"/></g></svg>