<svg width="448" height="449" xmlns="http://www.w3.org/2000/svg" xmlns:xlink="http://www.w3.org/1999/xlink" xml:space="preserve" overflow="hidden"><defs><filter id="fx0" x="-10%" y="-10%" width="120%" height="120%" filterUnits="userSpaceOnUse" primitiveUnits="userSpaceOnUse"><feComponentTransfer color-interpolation-filters="sRGB"><feFuncR type="discrete" tableValues="0 0"/><feFuncG type="discrete" tableValues="0 0"/><feFuncB type="discrete" tableValues="0 0"/><feFuncA type="linear" slope="0.4" intercept="0"/></feComponentTransfer><feGaussianBlur stdDeviation="7.63889 7.63889"/></filter><clipPath id="clip1"><rect x="3176" y="1440" width="448" height="449"/></clipPath><clipPath id="clip2"><rect x="-7" y="-7" width="463" height="463"/></clipPath><clipPath id="clip3"><rect x="0" y="0" width="450" height="451"/></clipPath></defs><g clip-path="url(#clip1)" transform="translate(-3176 -1440)"><g clip-path="url(#clip2)" filter="url(#fx0)" transform="translate(3175 1439)"><g clip-path="url(#clip3)"><path d="M26.6099 92.7311C26.6099 56.2079 56.2178 26.6 92.741 26.6L357.259 26.6C393.782 26.6 423.39 56.2079 423.39 92.7311L423.39 358.269C423.39 394.792 393.782 424.4 357.259 424.4L92.741 424.4C56.2178 424.4 26.6099 394.792 26.6099 358.269Z" stroke="#FFC000" stroke-width="5" stroke-miterlimit="8" fill="#B50B17" fill-rule="evenodd"/><path d="M58.74 117.041C58.74 86.5267 83.4768 61.7899 113.991 61.7899L334.989 61.7899C365.503 61.7899 390.24 86.5267 390.24 117.041L390.24 338.039C390.24 368.553 365.503 393.29 334.989 393.29L113.991 393.29C83.4768 393.29 58.74 368.553 58.74 338.039Z" stroke="#FFC000" stroke-width="11" stroke-miterlimit="8" fill="none" fill-rule="evenodd"/></g></g><path d="M3205.5 1534.33C3205.5 1498.53 3234.53 1469.5 3270.33 1469.5L3529.67 1469.5C3565.47 1469.5 3594.5 1498.53 3594.5 1534.33L3594.5 1794.67C3594.5 1830.47 3565.47 1859.5 3529.67 1859.5L3270.33 1859.5C3234.53 1859.5 3205.5 1830.47 3205.5 1794.67Z" stroke="#FFC000" stroke-width="4.58333" stroke-miterlimit="8" fill="#B50B17" fill-rule="evenodd"/><path d="M3237 1558.17C3237 1528.25 3261.25 1504 3291.17 1504L3507.83 1504C3537.75 1504 3562 1528.25 3562 1558.17L3562 1774.83C3562 1804.75 3537.75 1829 3507.83 1829L3291.17 1829C3261.25 1829 3237 1804.75 3237 1774.83Z" stroke="#FFC000" stroke-width="10.3125" stroke-miterlimit="8" fill="none" fill-rule="evenodd"/><path d="M3357.5 1614C3357.5 1588.87 3377.87 1568.5 3403 1568.5 3428.13 1568.5 3448.5 1588.87 3448.5 1614 3448.5 1639.13 3428.13 1659.5 3403 1659.5 3377.87 1659.5 3357.5 1639.13 3357.5 1614Z" stroke="#FFFFFF" stroke-width="4.58333" stroke-miterlimit="8" fill="#FFFFFF" fill-rule="evenodd"/><path d="M3325.5 1822.5 3325.5 1744.5C3325.5 1701.42 3363.33 1666.5 3410 1666.5 3456.67 1666.5 3494.5 1701.42 3494.5 1744.5L3494.5 1822.5Z" stroke="#FFFFFF" stroke-width="4.58333" stroke-miterlimit="8" fill="#FFFFFF" fill-rule="evenodd"/></g></svg>