<svg width="1245" height="449" xmlns="http://www.w3.org/2000/svg" xmlns:xlink="http://www.w3.org/1999/xlink" xml:space="preserve" overflow="hidden"><defs><filter id="fx0" x="-10%" y="-10%" width="120%" height="120%" filterUnits="userSpaceOnUse" primitiveUnits="userSpaceOnUse"><feComponentTransfer color-interpolation-filters="sRGB"><feFuncR type="discrete" tableValues="0 0"/><feFuncG type="discrete" tableValues="0 0"/><feFuncB type="discrete" tableValues="0 0"/><feFuncA type="linear" slope="0.4" intercept="0"/></feComponentTransfer><feGaussianBlur stdDeviation="7.63889 7.63889"/></filter><clipPath id="clip1"><rect x="1353" y="1440" width="1245" height="449"/></clipPath><clipPath id="clip2"><rect x="-7" y="-7" width="1260" height="463"/></clipPath><clipPath id="clip3"><rect x="0" y="0" width="1247" height="451"/></clipPath></defs><g clip-path="url(#clip1)" transform="translate(-1353 -1440)"><g clip-path="url(#clip2)" filter="url(#fx0)" transform="translate(1352 1439)"><g clip-path="url(#clip3)"><path d="M26.7999 92.9015C26.7999 56.2842 56.484 26.6 93.1012 26.6L1153.9 26.6C1190.52 26.6 1220.2 56.2842 1220.2 92.9015L1220.2 358.098C1220.2 394.716 1190.52 424.4 1153.9 424.4L93.1012 424.4C56.484 424.4 26.7999 394.716 26.7999 358.098Z" stroke="#FFC000" stroke-width="5" stroke-miterlimit="8" fill="#B50B17" fill-rule="evenodd"/><path d="M24.5478-46.0093C20.4326-50.1724 17.5376-53.8689 15.8628-57.0989 14.188-60.3288 13.3506-63.7861 13.3506-67.4707 13.3506-73.0215 15.0374-78.2373 18.4109-83.1182 21.7844-87.999 26.3064-91.875 31.9768-94.7461 37.6472-97.6172 43.7363-99.0527 50.2441-99.0527 57.6133-99.0527 63.2837-97.5215 67.2554-94.459 71.227-91.3965 73.2129-87.0659 73.2129-81.4673 73.2129-78.7876 72.4951-76.0122 71.0596-73.1411 69.624-70.27 67.6382-67.5903 65.102-65.102 63.3794-63.3794 61.7764-62.0754 60.293-61.1902 58.8096-60.3049 57.5654-59.8623 56.5605-59.8623 55.3164-59.8623 54.6943-60.8193 54.6943-62.7334 54.6943-62.6855 54.79-63.4272 54.9814-64.9585 55.2685-67.2075 55.4121-69.2173 55.4121-70.9878 55.4121-73.4761 55.0413-75.9763 54.2996-78.4885 53.5579-81.0007 52.6008-83.1062 51.4285-84.8049 50.2561-86.5037 49.1436-87.353 48.0908-87.353 47.5644-87.353 46.9663-86.9459 46.2964-86.1317 45.0044-84.7896 43.9995-83.1245 43.2817-81.1364 42.564-79.1483 42.2051-77.2919 42.2051-75.567 42.2051-73.4106 42.5122-71.4102 43.1264-69.5657 43.7406-67.7212 44.8147-65.8436 46.3485-63.9329 47.8824-62.0222 49.9193-59.9202 52.4591-57.6271 56.4854-53.9971 59.5872-50.8184 61.7644-48.0908 63.9416-45.3633 65.5327-42.6477 66.5376-39.9441 67.5425-37.2405 68.0449-34.3096 68.0449-31.1514 68.0449-25.6006 66.5854-20.2412 63.6665-15.0732 60.7476-9.90527 56.8835-5.73022 52.0745-2.5481 47.2654 0.634033 42.3008 2.2251 37.1807 2.2251 32.2998 2.2251 27.5386 1.17236 22.897-0.933105 18.2554-3.03857 13.9009-6.05322 9.8335-9.97705 5.62256-14.1401 3.51709-17.8247 3.51709-21.0308 3.51709-22.9927 4.45019-24.9067 6.31641-26.7729 8.23047-28.687 10.5872-30.314 13.3865-31.6538 16.1858-32.9936 18.5425-33.6636 20.4565-33.6636 21.5571-33.6636 22.4902-33.3884 23.2559-32.8381 24.0215-32.2878 24.7034-31.3547 25.3015-30.0388 25.8997-28.7229 26.4858-26.9404 27.0601-24.6914 27.9692-21.4853 28.8066-19.1047 29.5723-17.5496 30.3379-15.9944 31.4145-14.4512 32.8022-12.9199 34.2378-11.4844 35.7451-10.7666 37.3242-10.7666 39.2383-10.7666 40.7456-11.5206 41.8462-13.0287 42.9468-14.5368 43.4971-16.6079 43.4971-19.2419 43.4971-23.3594 42.0402-27.4769 39.1265-31.5944 38.2667-32.9828 37.3233-34.2157 36.2963-35.2931 35.2694-36.3705 33.0307-38.4379 29.5801-41.4952 28.5259-42.355 26.8485-43.8597 24.5478-46.0093ZM92.4222-69.4087 92.7093-70.27C95.8712-79.1704 98.6021-85.439 100.902-89.0757 102.004-90.7983 103.537-92.3296 105.501-93.6694 109.19-96.0142 112.664-97.1865 115.921-97.1865 117.838-97.1865 119.299-96.7553 120.305-95.8928 121.311-95.0304 121.814-93.7846 121.814-92.1554 121.814-91.0533 121.092-88.8065 119.647-85.415 117.192-79.77 115.362-74.4836 114.158-69.5556 114.973-69.4599 115.763-69.3163 116.53-69.1249 119.405-68.6943 121.298-68.2036 122.208-67.6529 123.118-67.1023 123.574-66.1092 123.574-64.6736 123.574-62.1367 122.928-59.7913 121.637-57.6372 120.345-55.4831 118.648-53.9033 116.544-52.8977 114.966-52.1799 112.408-51.7014 108.869-51.4621 108.254-49.5951 107.568-47.0336 106.811-43.7774 106.385-40.9049 105.912-36.9313 105.391-31.8568 105.104-29.9921 104.96-28.2466 104.96-26.6204 104.96-19.0659 108.621-15.2886 115.943-15.2886L116.373-15.2886 116.589-15.2886C117.45-15.2886 117.881-15.145 117.881-14.8579 117.881-14.0923 117.067-12.8003 115.44-10.9819 113.813-9.16357 112.019-7.56055 110.057-6.17285 107.952-4.7373 105.653-3.58887 103.161-2.72754 100.669-1.86621 98.416-1.43555 96.4025-1.43555 91.3683-1.43555 87.2811-3.13428 84.1409-6.53174 81.0006-9.9292 79.4305-14.4272 79.4305-20.0259 79.4305-22.4185 79.8492-25.5527 80.6866-29.4287 81.524-33.3047 82.828-38.4966 84.5985-45.0044 84.8856-46.1528 85.1966-47.3611 85.5316-48.6291 85.8665-49.8972 86.0579-50.6509 86.1058-50.8901 84.1917-50.938 82.828-51.3447 82.0145-52.1103 81.201-52.876 80.7943-54.1201 80.7943-55.8428 80.7943-58.8574 81.9547-61.7046 84.2755-64.3843 86.5963-67.064 89.3118-68.7388 92.4222-69.4087ZM177.077-72.208C184.207-72.208 187.771-71.3706 187.771-69.6958 187.771-67.7817 186.168-66.7529 182.962-66.6094 179.086-66.3701 175.474-65.2695 172.124-63.3076 168.774-61.3457 165.796-58.666 163.188-55.2685 160.58-51.8711 158.546-48.043 157.087-43.7842 155.627-39.5254 154.897-35.0273 154.897-30.29 154.897-25.0742 156.118-20.8752 158.558-17.6931 160.999-14.511 164.181-12.9199 168.104-12.9199 171.741-12.9199 174.923-14.7861 177.651-18.5186 180.378-22.251 181.742-26.6055 181.742-31.582 181.742-35.6494 180.893-39.4656 179.194-43.0305 177.495-46.5955 175.019-49.5981 171.765-52.0386 170.377-53.1392 169.684-53.9287 169.684-54.4072 169.684-55.0771 170.665-56.1059 172.626-57.4936 174.828-58.977 177.292-60.2212 180.02-61.2261 182.747-62.2309 185.044-62.7334 186.91-62.7334 189.063-62.7334 191.109-62.1711 193.047-61.0466 194.985-59.9221 196.696-58.3191 198.179-56.2375 199.663-54.156 200.799-51.7634 201.589-49.0598 202.378-46.3562 202.773-43.4731 202.773-40.4106 202.773-35.3384 201.816-30.3259 199.902-25.3733 197.988-20.4207 195.476-16.4131 192.365-13.3506 188.346-9.47461 183.501-6.30444 177.83-3.84009 172.16-1.37573 166.765-0.143555 161.645-0.143555 156.668-0.143555 151.727-1.00488 146.822-2.72754 141.918-4.45019 138.03-6.72314 135.159-9.54639 131.331-13.3745 129.416-18.8057 129.416-25.8398 129.416-31.3906 130.78-36.9414 133.508-42.4922 136.235-48.043 139.932-53.0793 144.597-57.6013 149.263-62.1233 154.407-65.6882 160.03-68.2961 165.652-70.904 171.334-72.208 177.077-72.208ZM233.169-21.8921 232.882-20.4565C232.882-19.6431 232.786-18.4707 232.595-16.9395 232.403-14.5947 232.14-12.6807 231.805-11.1973 231.47-9.71387 230.968-8.48169 230.298-7.50073 229.628-6.51977 228.719-5.479 227.57-4.37842 224.077-1.17236 220.56 0.430664 217.019 0.430664 214.148 0.430664 212.031-0.62207 210.667-2.72754 209.303-4.83301 208.621-8.23047 208.621-12.9199 208.621-16.6523 209.04-21.2581 209.877-26.7371 210.715-32.2161 211.732-37.1328 212.928-41.4873L213.502-43.3535C213.502-43.6406 213.646-44.2388 213.933-45.1479 215.703-51.6558 217.33-56.4768 218.814-59.6111 220.297-62.7454 222.091-65.2695 224.197-67.1836 226.063-68.667 228.169-69.4087 230.513-69.4087 233.911-69.4087 235.968-67.3511 236.686-63.2358 237.356-63.8101 238.002-64.48 238.624-65.2456 240.012-66.9204 241.089-68.033 241.854-68.5832 242.62-69.1335 243.505-69.4087 244.51-69.4087 248.625-69.4087 250.683-65.3413 250.683-57.2065 250.683-52.7563 250.204-48.4497 249.247-44.2866 248.29-40.1235 247.082-36.7261 245.622-34.0942 244.163-31.4624 242.715-30.1465 241.28-30.1465 239.701-30.1465 238.911-33.1372 238.911-39.1186 238.911-42.2769 238.732-44.7532 238.373-46.5476 238.014-48.342 237.452-49.7417 236.686-50.7466 235.251-48.0669 234.318-41.9419 233.887-32.3716 233.552-26.8208 233.313-23.3276 233.169-21.8921ZM281.152-22.3228C283.353-23.8062 285.028-25.2895 286.176-26.7729 288.712-29.8833 290.674-33.4482 292.062-37.4678 293.163-40.0996 294.024-43.0425 294.646-46.2964 295.268-49.5503 295.579-52.5889 295.579-55.4121 295.579-58.0439 295.029-59.3599 293.928-59.3599 292.397-59.3599 290.052-55.9863 286.894-49.2393 285.028-45.1719 283.509-41.1165 282.336-37.073 281.164-33.0295 280.578-29.5483 280.578-26.6294 280.578-25.6245 280.769-24.189 281.152-22.3228ZM281.295-20.0259C281.822-17.1548 283.688-15.7192 286.894-15.7192 290.483-15.7192 295.148-17.8247 300.891-22.0356 304.24-24.4761 306.489-25.6963 307.638-25.6963 309.073-25.6963 310.413-25.3135 311.657-24.5478 312.901-23.7822 313.523-22.9927 313.523-22.1792 313.523-21.3179 312.83-20.1934 311.442-18.8057 308.906-16.2695 305.987-13.7932 302.685-11.3767 299.383-8.9602 296.201-6.95044 293.139-5.34741 290.076-3.74438 287.014-2.47632 283.951-1.54321 280.889-0.610107 278.161-0.143555 275.769-0.143555 269.787-0.143555 265.002-1.85425 261.413-5.27563 257.824-8.69702 256.03-13.2549 256.03-18.9492 256.03-23.3037 256.975-28.2205 258.865-33.6995 260.755-39.1785 263.303-44.3105 266.509-49.0957 270.29-54.6943 274.931-59.3599 280.434-63.0923 287.229-67.5903 293.737-69.8393 299.957-69.8393 304.456-69.8393 307.985-68.4158 310.545-65.5686 313.105-62.7214 314.385-58.8096 314.385-53.833 314.385-49.957 313.368-45.9136 311.334-41.7026 309.301-37.4917 306.298-33.4482 302.326-29.5723 299.072-26.3184 295.878-23.7822 292.744-21.9639 289.61-20.1455 286.87-19.2363 284.525-19.2363 283.473-19.2363 282.396-19.4995 281.295-20.0259ZM398.914-61.5883 396.547-55.8461C393.437-48.4762 390.543-41.1303 387.864-33.8082 386.573-30.2665 384.612-24.0929 381.981-15.2875 385.953-15.6224 391.289-16.4602 397.989-17.8008 402.297-18.6621 404.905-19.0928 405.814-19.0928 407.489-19.0928 408.326-18.4228 408.326-17.083 408.326-15.5039 407.405-13.2908 405.563-10.4436 403.72-7.59643 401.651-5.14404 399.354-3.08643 397.775-1.60303 395.43-0.574219 392.32 0 389.209 0.574219 384.353 0.861328 377.749 0.861328 371.576 0.861328 366.815 0.669922 363.465 0.287109 363.417 0.287109 362.628 0.0478515 361.097-0.430664 358.369-1.5791 357.005-3.97168 357.005-7.6084 357.005-10.2402 357.759-15.0493 359.266-22.0356 360.774-29.022 362.963-37.707 365.834-48.0908 372.342-71.251 377.247-85.5586 380.548-91.0137 381.6-92.8799 382.927-94.3274 384.53-95.3562 386.132-96.385 388.32-97.1865 391.094-97.7607 393.773-98.335 396.858-98.6221 400.35-98.6221 403.604-98.6221 405.889-98.2034 407.205-97.366 408.521-96.5286 409.179-95.081 409.179-93.0234 409.179-91.0623 408.317-87.3902 406.595-82.0073 404.872-76.6244 402.312-69.818 398.914-61.5883ZM462.389-72.208C469.519-72.208 473.084-71.3706 473.084-69.6958 473.084-67.7817 471.481-66.7529 468.275-66.6094 464.399-66.3701 460.786-65.2695 457.437-63.3076 454.087-61.3457 451.108-58.666 448.5-55.2685 445.892-51.8711 443.859-48.043 442.399-43.7842 440.94-39.5254 440.21-35.0273 440.21-30.29 440.21-25.0742 441.43-20.8752 443.871-17.6931 446.311-14.511 449.493-12.9199 453.417-12.9199 457.054-12.9199 460.236-14.7861 462.963-18.5186 465.691-22.251 467.055-26.6055 467.055-31.582 467.055-35.6494 466.205-39.4656 464.507-43.0305 462.808-46.5955 460.332-49.5981 457.078-52.0386 455.69-53.1392 454.996-53.9287 454.996-54.4072 454.996-55.0771 455.977-56.1059 457.939-57.4936 460.14-58.977 462.604-60.2212 465.332-61.2261 468.06-62.2309 470.356-62.7334 472.223-62.7334 474.376-62.7334 476.422-62.1711 478.36-61.0466 480.298-59.9221 482.008-58.3191 483.492-56.2375 484.975-54.156 486.112-51.7634 486.901-49.0598 487.691-46.3562 488.085-43.4731 488.085-40.4106 488.085-35.3384 487.128-30.3259 485.214-25.3733 483.3-20.4207 480.788-16.4131 477.678-13.3506 473.658-9.47461 468.813-6.30444 463.143-3.84009 457.472-1.37573 452.077-0.143555 446.957-0.143555 441.98-0.143555 437.04-1.00488 432.135-2.72754 427.23-4.45019 423.342-6.72314 420.471-9.54639 416.643-13.3745 414.729-18.8057 414.729-25.8398 414.729-31.3906 416.093-36.9414 418.82-42.4922 421.548-48.043 425.244-53.0793 429.91-57.6013 434.575-62.1233 439.719-65.6882 445.342-68.2961 450.965-70.904 456.647-72.208 462.389-72.208ZM533.483-69.2651C537.12-69.1216 540.015-68.0688 542.168-66.1069 544.321-64.145 545.398-61.5132 545.398-58.2114 545.398-55.3403 544.573-52.4453 542.922-49.5264 541.271-46.6074 539.189-44.2148 536.677-42.3486 534.165-40.4824 531.641-39.5493 529.105-39.5493 527.621-39.5493 526.88-40.0757 526.88-41.1284 526.88-41.5112 527.167-42.3486 527.741-43.6406 529.607-46.7988 530.54-50.4355 530.54-54.5508 530.54-56.6084 530.301-57.6372 529.822-57.6372 529.152-57.6372 528.195-56.7759 526.951-55.0532 525.707-53.3306 524.654-51.2969 523.793-48.9521 522.31-45.2676 521.078-41.3437 520.097-37.1807 519.116-33.0176 518.625-29.5005 518.625-26.6294 518.625-23.3755 519.116-20.8154 520.097-18.9492 521.078-17.083 522.453-16.1499 524.224-16.1499 525.851-16.1499 528.028-17.0112 530.755-18.7339 533.483-20.4565 536.067-22.5859 538.507-25.1221 539.512-26.4141 540.398-27.0601 541.163-27.0601 542.312-27.0601 542.886-26.4141 542.886-25.1221 542.886-19.2363 540.589-13.9009 535.995-9.11572 532.837-5.95752 529.212-3.40942 525.121-1.47144 521.03 0.466553 517.357 1.43555 514.103 1.43555 508.409 1.43555 503.672-0.358887 499.891-3.94775 496.111-7.53662 494.221-12.0586 494.221-17.5137 494.221-22.9687 495.429-28.699 497.846-34.7043 500.262-40.7097 503.564-46.416 507.751-51.8232 511.938-57.2305 516.687-61.7524 521.999-65.3892 525.827-67.9731 529.559-69.2651 533.196-69.2651ZM604.342-37.3242 602.978-36.8936C599.533-35.9365 597.045-35.458 595.513-35.458 593.647-35.458 592.714-35.9365 592.714-36.8936 592.714-37.2285 593.097-38.1138 593.862-39.5493 596.542-43.6167 597.882-47.4448 597.882-51.0337 597.882-53.0913 597.523-54.9695 596.805-56.6682 596.088-58.3669 595.298-59.2163 594.437-59.2163 593.671-59.2163 592.499-58.4028 590.92-56.7759 586.469-51.9429 582.94-46.9902 580.332-41.918 577.724-36.8457 576.421-32.3237 576.421-28.352 576.421-25.7202 576.959-23.543 578.036-21.8203 579.112-20.0977 580.464-19.2363 582.091-19.2363 583.479-19.2363 586.075-20.7197 589.879-23.6865 593.683-26.6533 597.954-30.5771 602.691-35.458L604.629-37.0371ZM600.035-20.8872 600.035-20.6001 599.748-20.8872C595.298-15.6714 591.219-11.4006 587.51-8.07495 583.802-4.74927 580.38-2.24902 577.246-0.574219 574.112 1.10059 571.229 1.93799 568.597 1.93799 563.237 1.93799 558.811 0.143555 555.318-3.44531 551.825-7.03418 550.078-11.5801 550.078-17.083 550.078-20.4805 550.94-24.5 552.662-29.1416 554.385-33.7832 556.754-38.3291 559.768-42.7793 564.793-50.0527 571.109-56.2256 578.717-61.2978 586.565-66.5137 594.126-69.1216 601.399-69.1216 607.524-69.1216 612.56-67.8655 616.508-65.3533 620.456-62.8411 622.43-59.6709 622.43-55.8428 622.43-53.0195 621.449-50.0288 619.487-46.8706 622.071-46.8706 623.698-46.5955 624.368-46.0452 625.038-45.4949 625.373-44.2148 625.373-42.2051 625.373-42.3965 625.253-41.4155 625.014-39.2622 624.727-34.5249 624.583-30.0986 624.583-25.9834 624.583-23.8301 624.607-22.2031 624.655-21.1025 624.703-20.002 624.798-18.7339 624.942-17.2983 625.086-15.8628 625.229-14.7144 625.373-13.853 625.755-11.604 626.378-9.37891 627.239-7.17773 624.368-4.35449 621.616-2.28491 618.984-0.968994 616.353 0.346924 613.673 1.00488 610.945 1.00488 603.576 1.00488 599.892-5.16797 599.892-17.5137 599.892-18.9492 599.94-20.0737 600.035-20.8872ZM645.287-69.4087 645.574-70.27C648.736-79.1704 651.467-85.439 653.767-89.0757 654.869-90.7983 656.402-92.3296 658.366-93.6694 662.055-96.0142 665.528-97.1865 668.786-97.1865 670.702-97.1865 672.163-96.7553 673.169-95.8928 674.175-95.0304 674.678-93.7846 674.678-92.1554 674.678-91.0533 673.956-88.8065 672.512-85.415 670.056-79.77 668.227-74.4836 667.023-69.5556 667.837-69.4599 668.628-69.3163 669.395-69.1249 672.27-68.6943 674.162-68.2036 675.073-67.6529 675.983-67.1023 676.438-66.1092 676.438-64.6736 676.438-62.1367 675.792-59.7913 674.501-57.6372 673.21-55.4831 671.512-53.9033 669.408-52.8977 667.831-52.1799 665.273-51.7014 661.734-51.4621 661.118-49.5951 660.432-47.0336 659.676-43.7774 659.25-40.9049 658.776-36.9313 658.256-31.8568 657.968-29.9921 657.824-28.2466 657.824-26.6204 657.824-19.0659 661.485-15.2886 668.807-15.2886L669.238-15.2886 669.453-15.2886C670.315-15.2886 670.745-15.145 670.745-14.8579 670.745-14.0923 669.932-12.8003 668.305-10.9819 666.678-9.16357 664.883-7.56055 662.922-6.17285 660.816-4.7373 658.517-3.58887 656.025-2.72754 653.533-1.86621 651.281-1.43555 649.267-1.43555 644.233-1.43555 640.146-3.13428 637.005-6.53174 633.865-9.9292 632.295-14.4272 632.295-20.0259 632.295-22.4185 632.714-25.5527 633.551-29.4287 634.389-33.3047 635.693-38.4966 637.463-45.0044 637.75-46.1528 638.061-47.3611 638.396-48.6291 638.731-49.8972 638.922-50.6509 638.97-50.8901 637.056-50.938 635.693-51.3447 634.879-52.1103 634.066-52.876 633.659-54.1201 633.659-55.8428 633.659-58.8574 634.819-61.7046 637.14-64.3843 639.461-67.064 642.176-68.7388 645.287-69.4087ZM729.941-72.208C737.071-72.208 740.636-71.3706 740.636-69.6958 740.636-67.7817 739.033-66.7529 735.827-66.6094 731.951-66.3701 728.338-65.2695 724.989-63.3076 721.639-61.3457 718.66-58.666 716.052-55.2685 713.444-51.8711 711.411-48.043 709.951-43.7842 708.492-39.5254 707.762-35.0273 707.762-30.29 707.762-25.0742 708.982-20.8752 711.423-17.6931 713.863-14.511 717.045-12.9199 720.969-12.9199 724.606-12.9199 727.788-14.7861 730.515-18.5186 733.243-22.251 734.607-26.6055 734.607-31.582 734.607-35.6494 733.757-39.4656 732.059-43.0305 730.36-46.5955 727.884-49.5981 724.63-52.0386 723.242-53.1392 722.548-53.9287 722.548-54.4072 722.548-55.0771 723.529-56.1059 725.491-57.4936 727.692-58.977 730.156-60.2212 732.884-61.2261 735.612-62.2309 737.908-62.7334 739.775-62.7334 741.928-62.7334 743.974-62.1711 745.912-61.0466 747.85-59.9221 749.56-58.3191 751.044-56.2375 752.527-54.156 753.664-51.7634 754.453-49.0598 755.243-46.3562 755.637-43.4731 755.638-40.4106 755.637-35.3384 754.68-30.3259 752.766-25.3733 750.852-20.4207 748.34-16.4131 745.23-13.3506 741.21-9.47461 736.365-6.30444 730.695-3.84009 725.024-1.37573 719.629-0.143555 714.509-0.143555 709.532-0.143555 704.592-1.00488 699.687-2.72754 694.782-4.45019 690.894-6.72314 688.023-9.54639 684.195-13.3745 682.281-18.8057 682.281-25.8398 682.281-31.3906 683.645-36.9414 686.372-42.4922 689.1-48.043 692.796-53.0793 697.462-57.6013 702.127-62.1233 707.271-65.6882 712.894-68.2961 718.517-70.904 724.199-72.208 729.941-72.208ZM786.034-21.8921 785.747-20.4565C785.747-19.6431 785.651-18.4707 785.459-16.9395 785.268-14.5947 785.005-12.6807 784.67-11.1973 784.335-9.71387 783.832-8.48169 783.163-7.50073 782.493-6.51977 781.583-5.479 780.435-4.37842 776.942-1.17236 773.425 0.430664 769.884 0.430664 767.013 0.430664 764.895-0.62207 763.531-2.72754 762.168-4.83301 761.486-8.23047 761.486-12.9199 761.486-16.6523 761.905-21.2581 762.742-26.7371 763.579-32.2161 764.596-37.1328 765.792-41.4873L766.367-43.3535C766.367-43.6406 766.51-44.2388 766.797-45.1479 768.568-51.6558 770.195-56.4768 771.678-59.6111 773.162-62.7454 774.956-65.2695 777.062-67.1836 778.928-68.667 781.033-69.4087 783.378-69.4087 786.775-69.4087 788.833-67.3511 789.551-63.2358 790.221-63.8101 790.867-64.48 791.489-65.2456 792.876-66.9204 793.953-68.033 794.719-68.5832 795.484-69.1335 796.37-69.4087 797.375-69.4087 801.49-69.4087 803.547-65.3413 803.547-57.2065 803.547-52.7563 803.069-48.4497 802.112-44.2866 801.155-40.1235 799.946-36.7261 798.487-34.0942 797.028-31.4624 795.58-30.1465 794.145-30.1465 792.565-30.1465 791.776-33.1372 791.776-39.1186 791.776-42.2769 791.596-44.7532 791.238-46.5476 790.879-48.342 790.316-49.7417 789.551-50.7466 788.115-48.0669 787.182-41.9419 786.751-32.3716 786.416-26.8208 786.177-23.3276 786.034-21.8921Z" fill="#FFFFFF" transform="matrix(1.02 0 0 1.02 212.157 280)"/><path d="M92.5901 123.671C92.5901 95.6915 115.272 73.0099 143.251 73.0099L1102.73 73.0099C1130.71 73.0099 1153.39 95.6915 1153.39 123.671L1153.39 326.309C1153.39 354.288 1130.71 376.97 1102.73 376.97L143.251 376.97C115.272 376.97 92.5901 354.288 92.5901 326.309Z" stroke="#FFC000" stroke-width="11" stroke-miterlimit="8" fill="none" fill-rule="evenodd"/></g></g><path d="M1390.5 1534.5C1390.5 1498.6 1419.6 1469.5 1455.5 1469.5L2495.5 1469.5C2531.4 1469.5 2560.5 1498.6 2560.5 1534.5L2560.5 1794.5C2560.5 1830.4 2531.4 1859.5 2495.5 1859.5L1455.5 1859.5C1419.6 1859.5 1390.5 1830.4 1390.5 1794.5Z" stroke="#FFC000" stroke-width="4.58333" stroke-miterlimit="8" fill="#B50B17" fill-rule="evenodd"/><text fill="#FFFFFF" font-family="Forte,Forte_MSFontService,sans-serif" font-weight="400" font-size="147" transform="matrix(1 0 0 1 1572.22 1718)">Store Locator</text><path d="M1455 1564.67C1455 1537.24 1477.24 1515 1504.67 1515L2445.33 1515C2472.76 1515 2495 1537.24 2495 1564.67L2495 1763.33C2495 1790.76 2472.76 1813 2445.33 1813L1504.67 1813C1477.24 1813 1455 1790.76 1455 1763.33Z" stroke="#FFC000" stroke-width="10.3125" stroke-miterlimit="8" fill="none" fill-rule="evenodd"/></g></svg>