<svg width="1533" height="1533" xmlns="http://www.w3.org/2000/svg" xmlns:xlink="http://www.w3.org/1999/xlink" xml:space="preserve" overflow="hidden"><defs><filter id="fx0" x="-10%" y="-10%" width="120%" height="120%" filterUnits="userSpaceOnUse" primitiveUnits="userSpaceOnUse"><feComponentTransfer color-interpolation-filters="sRGB"><feFuncR type="discrete" tableValues="0 0"/><feFuncG type="discrete" tableValues="0 0"/><feFuncB type="discrete" tableValues="0 0"/><feFuncA type="linear" slope="0.431373" intercept="0"/></feComponentTransfer><feGaussianBlur stdDeviation="6.15621 6.15621"/></filter><filter id="fx1" x="-10%" y="-10%" width="120%" height="120%" filterUnits="userSpaceOnUse" primitiveUnits="userSpaceOnUse"><feComponentTransfer color-interpolation-filters="sRGB"><feFuncR type="discrete" tableValues="0 0"/><feFuncG type="discrete" tableValues="0 0"/><feFuncB type="discrete" tableValues="0 0"/><feFuncA type="linear" slope="0.431373" intercept="0"/></feComponentTransfer><feGaussianBlur stdDeviation="6.15621 6.15621"/></filter><filter id="fx2" x="-10%" y="-10%" width="120%" height="120%" filterUnits="userSpaceOnUse" primitiveUnits="userSpaceOnUse"><feComponentTransfer color-interpolation-filters="sRGB"><feFuncR type="discrete" tableValues="0 0"/><feFuncG type="discrete" tableValues="0 0"/><feFuncB type="discrete" tableValues="0 0"/><feFuncA type="linear" slope="0.431373" intercept="0"/></feComponentTransfer><feGaussianBlur stdDeviation="6.15621 6.15621"/></filter><filter id="fx3" x="-10%" y="-10%" width="120%" height="120%" filterUnits="userSpaceOnUse" primitiveUnits="userSpaceOnUse"><feComponentTransfer color-interpolation-filters="sRGB"><feFuncR type="discrete" tableValues="0 0"/><feFuncG type="discrete" tableValues="0 0"/><feFuncB type="discrete" tableValues="0 0"/><feFuncA type="linear" slope="0.431373" intercept="0"/></feComponentTransfer><feGaussianBlur stdDeviation="6.15621 6.15621"/></filter><clipPath id="clip4"><rect x="1252" y="370" width="1533" height="1533"/></clipPath><clipPath id="clip5"><rect x="-3" y="-3" width="405" height="415"/></clipPath><clipPath id="clip6"><rect x="0" y="0" width="396" height="408"/></clipPath><clipPath id="clip7"><rect x="-3" y="-3" width="273" height="304"/></clipPath><clipPath id="clip8"><rect x="0" y="0" width="265" height="297"/></clipPath><clipPath id="clip9"><rect x="-3" y="-3" width="339" height="432"/></clipPath><clipPath id="clip10"><rect x="0" y="0" width="334" height="426"/></clipPath><clipPath id="clip11"><rect x="-3" y="-3" width="422" height="280"/></clipPath><clipPath id="clip12"><rect x="0" y="0" width="415" height="275"/></clipPath></defs><g clip-path="url(#clip4)" transform="translate(-1252 -370)"><path d="M1252 1136.5C1252 713.174 1595.17 370 2018.5 370 2441.83 370 2785 713.174 2785 1136.5 2785 1559.83 2441.83 1903 2018.5 1903 1595.17 1903 1252 1559.83 1252 1136.5Z" fill="#B50B17" fill-rule="evenodd"/><path d="M1319 1134.5C1319 747.072 1633.07 433 2020.5 433 2407.93 433 2722 747.072 2722 1134.5 2722 1521.93 2407.93 1836 2020.5 1836 1633.07 1836 1319 1521.93 1319 1134.5Z" stroke="#FFFFFF" stroke-width="13.75" stroke-miterlimit="8" fill="none" fill-rule="evenodd"/><g clip-path="url(#clip5)" filter="url(#fx0)" transform="translate(1375 918)"><g clip-path="url(#clip6)"><path d="M186.589 22.4317C198.115 22.4317 206.704 24.2263 212.357 27.8154 218.01 31.4045 220.837 37.3189 220.837 45.5587 220.837 54.9001 211.702 84.6277 193.432 134.742 192.931 136.238 192.043 138.725 190.769 142.204L190.321 143.424 231.037 99.5927C244.45 86.6542 255.146 76.8021 263.124 70.0367 271.103 63.2712 280.198 56.5848 290.411 49.9774 312.618 35.0446 332.462 27.5782 349.941 27.5782 365.946 27.5782 373.949 33.9161 373.949 46.592 373.949 54.3251 372.102 62.0677 368.408 69.8195 364.715 77.5714 359.804 84.5098 353.676 90.6346 343.231 101.075 323.213 115.269 293.623 133.218 272.024 146.502 255.74 157.558 244.772 166.384 246.737 176.825 248.941 187.007 251.384 196.932 253.827 206.856 256.516 215.549 259.451 223.01 262.387 230.471 266.523 239.41 271.859 249.826 277.845 261.547 284.709 272.819 292.453 283.64 309.525 306.745 326.566 321.958 343.576 329.279 351.302 333.031 355.164 337.024 355.164 341.256 355.164 346.979 351.787 352.737 345.032 358.529 336.706 367.219 326.69 373.89 314.983 378.54 303.276 383.191 291.412 385.516 279.39 385.516 257.751 385.516 238.365 379.826 221.233 368.446 204.101 357.066 190.986 341.165 181.888 320.743 171.641 298.224 165.107 271.018 162.288 239.123 162.12 237.663 161.973 236.272 161.848 234.951L161.833 234.779 160.803 236.41C158.638 239.971 156.806 243.273 155.308 246.316 152.311 252.4 147.509 263.711 140.901 280.246 133.45 300.315 126.432 316.031 119.847 327.393 113.263 338.755 105.534 348.153 96.6618 355.586 88.8804 362.36 79.9417 368.184 69.8458 373.058 59.7498 377.932 51.1556 380.37 44.0631 380.37 37.8793 380.37 32.8213 378.135 28.889 373.667 24.9568 369.199 22.9907 363.831 22.9907 357.564 22.9907 354.16 23.2708 351.067 23.831 348.285 31.5132 317.794 40.0484 286.009 49.4368 252.93 58.8251 219.85 68.4499 188.647 78.3113 159.32 88.1728 129.993 97.2515 105.2 105.548 84.9413 113.844 64.6824 120.381 51.6433 125.16 45.8241 131.331 38.7074 140.115 33.0295 151.514 28.7904 162.913 24.5512 174.604 22.4317 186.589 22.4317Z" stroke="#FFC000" stroke-width="5" stroke-linejoin="round" stroke-miterlimit="10" fill="#FFC000" fill-rule="evenodd"/></g></g><path d="M1548.53 927.372C1560.06 927.372 1568.64 929.167 1574.3 932.756 1579.95 936.345 1582.78 942.26 1582.78 950.5 1582.78 959.841 1573.64 989.569 1555.37 1039.68 1554.87 1041.18 1553.98 1043.67 1552.71 1047.15L1552.26 1048.36 1592.98 1004.53C1606.39 991.595 1617.09 981.743 1625.07 974.977 1633.04 968.212 1642.14 961.526 1652.35 954.918 1674.56 939.985 1694.4 932.519 1711.88 932.519 1727.89 932.519 1735.89 938.857 1735.89 951.533 1735.89 959.266 1734.04 967.008 1730.35 974.76 1726.66 982.512 1721.74 989.451 1715.62 995.575 1705.17 1006.02 1685.15 1020.21 1655.56 1038.16 1633.96 1051.44 1617.68 1062.5 1606.71 1071.33 1608.68 1081.77 1610.88 1091.95 1613.32 1101.87 1615.77 1111.8 1618.46 1120.49 1621.39 1127.95 1624.33 1135.41 1628.46 1144.35 1633.8 1154.77 1639.79 1166.49 1646.65 1177.76 1654.39 1188.58 1671.47 1211.69 1688.51 1226.9 1705.52 1234.22 1713.24 1237.97 1717.1 1241.96 1717.1 1246.2 1717.1 1251.92 1713.73 1257.68 1706.97 1263.47 1698.65 1272.16 1688.63 1278.83 1676.92 1283.48 1665.22 1288.13 1653.35 1290.46 1641.33 1290.46 1619.69 1290.46 1600.31 1284.77 1583.17 1273.39 1566.04 1262.01 1552.93 1246.11 1543.83 1225.68 1533.58 1203.17 1527.05 1175.96 1524.23 1144.06 1524.06 1142.6 1523.91 1141.21 1523.79 1139.89L1523.77 1139.72 1522.74 1141.35C1520.58 1144.91 1518.75 1148.21 1517.25 1151.26 1514.25 1157.34 1509.45 1168.65 1502.84 1185.19 1495.39 1205.26 1488.37 1220.97 1481.79 1232.33 1475.2 1243.7 1467.47 1253.09 1458.6 1260.53 1450.82 1267.3 1441.88 1273.12 1431.79 1278 1421.69 1282.87 1413.1 1285.31 1406 1285.31 1399.82 1285.31 1394.76 1283.08 1390.83 1278.61 1386.9 1274.14 1384.93 1268.77 1384.93 1262.51 1384.93 1259.1 1385.21 1256.01 1385.77 1253.23 1393.45 1222.74 1401.99 1190.95 1411.38 1157.87 1420.77 1124.79 1430.39 1093.59 1440.25 1064.26 1450.11 1034.93 1459.19 1010.14 1467.49 989.882 1475.78 969.623 1482.32 956.584 1487.1 950.765 1493.27 943.648 1502.06 937.97 1513.45 933.731 1524.85 929.492 1536.54 927.372 1548.53 927.372Z" stroke="#FFC000" stroke-width="5" stroke-linejoin="round" stroke-miterlimit="10" fill="#FFC000" fill-rule="evenodd"/><text fill="#000000" fill-opacity="0" font-family="Arial,Arial_MSFontService,sans-serif" font-size="363.084" x="1384.93" y="1245.07">K</text><g clip-path="url(#clip7)" filter="url(#fx1)" transform="translate(1736 1026)"><g clip-path="url(#clip8)"><path d="M120.302 22.6992C135.218 22.6992 142.677 29.2792 142.677 42.4391 142.677 48.9575 140.048 57.8979 134.792 69.2602 129.759 82.0692 125.885 92.5599 123.169 100.732 122.936 101.434 122.527 102.635 121.943 104.334 121.358 106.034 120.736 107.314 120.075 108.174 117.549 117.37 114.485 128.744 110.881 142.297 107.278 155.849 104.414 167.512 102.291 177.285 100.168 187.058 99.1059 193.33 99.1059 196.102 99.1059 198.055 99.0817 199.031 99.0331 199.031 100.551 199.031 105.692 193.4 114.455 182.139 123.531 170.459 133.752 155.813 145.118 138.202 156.484 120.59 165.954 104.738 173.527 90.6465 178.459 81.5932 182.16 75.2587 184.632 71.643 187.103 68.0273 189.188 65.9954 190.887 65.5474 198.727 58.9637 207.244 55.6719 216.439 55.6719 229.728 55.6719 236.373 61.788 236.373 74.0202 236.373 75.9597 236.006 80.21 235.272 86.7713 232.183 112.003 230.638 135.465 230.638 157.157 230.638 167.381 230.917 176.257 231.474 183.785 232.031 191.314 232.902 198.914 234.088 206.586 235.273 214.258 236.799 222.026 238.666 229.89 241.318 242.087 242.645 249.538 242.645 252.245 242.645 254.912 241.785 257.342 240.066 259.533 237.762 262.992 233.465 265.725 227.175 267.732 216.589 271.749 208.369 273.757 202.515 273.757 194.832 273.757 187.701 271.074 181.122 265.707 174.543 260.341 169.548 253.653 166.138 245.645 160.625 233.451 157.158 218.828 155.736 201.778 155.647 201.069 155.558 200.156 155.469 199.04L155.436 198.598 154.015 200.994C148.081 210.888 142.571 219.447 137.484 226.669 130.701 236.298 124.199 244.22 117.978 250.436 110.302 258.104 102.474 264.028 94.493 268.206 86.5121 272.385 78.8032 274.474 71.3665 274.474 55.9983 274.474 43.9966 269.811 35.3614 260.484 26.7263 251.157 22.4087 238.225 22.4087 221.689 22.4087 201.169 27.9517 171.212 39.0378 131.818 42.7861 118.811 46.6291 106.519 50.5668 94.9417 54.5045 83.3647 58.6886 72.267 63.1191 61.6485 67.5496 51.03 70.9017 43.7579 73.1753 39.8324 75.5459 35.5334 78.4383 32.3457 81.8524 30.269 85.2665 28.1924 89.7316 26.567 95.2476 25.3928 104.469 23.5971 112.82 22.6992 120.302 22.6992Z" stroke="#FFC000" stroke-width="5" stroke-linejoin="round" stroke-miterlimit="10" fill="#FFC000" fill-rule="evenodd"/></g></g><path d="M1843.24 1035.64C1858.16 1035.64 1865.62 1042.22 1865.62 1055.38 1865.62 1061.9 1862.99 1070.84 1857.73 1082.2 1852.7 1095.01 1848.83 1105.5 1846.11 1113.67 1845.88 1114.37 1845.47 1115.58 1844.88 1117.28 1844.3 1118.97 1843.68 1120.25 1843.02 1121.12 1840.49 1130.31 1837.43 1141.68 1833.82 1155.24 1830.22 1168.79 1827.35 1180.45 1825.23 1190.23 1823.11 1200 1822.05 1206.27 1822.05 1209.04 1822.05 1211 1822.02 1211.97 1821.97 1211.97 1823.49 1211.97 1828.63 1206.34 1837.4 1195.08 1846.47 1183.4 1856.69 1168.75 1868.06 1151.14 1879.42 1133.53 1888.89 1117.68 1896.47 1103.59 1901.4 1094.53 1905.1 1088.2 1907.57 1084.58 1910.04 1080.97 1912.13 1078.94 1913.83 1078.49 1921.67 1071.9 1930.18 1068.61 1939.38 1068.61 1952.67 1068.61 1959.31 1074.73 1959.31 1086.96 1959.31 1088.9 1958.95 1093.15 1958.21 1099.71 1955.12 1124.94 1953.58 1148.41 1953.58 1170.1 1953.58 1180.32 1953.86 1189.2 1954.41 1196.73 1954.97 1204.25 1955.84 1211.85 1957.03 1219.53 1958.21 1227.2 1959.74 1234.97 1961.61 1242.83 1964.26 1255.03 1965.59 1262.48 1965.59 1265.19 1965.59 1267.85 1964.73 1270.28 1963.01 1272.47 1960.7 1275.93 1956.41 1278.67 1950.12 1280.67 1939.53 1284.69 1931.31 1286.7 1925.46 1286.7 1917.77 1286.7 1910.64 1284.01 1904.06 1278.65 1897.48 1273.28 1892.49 1266.59 1889.08 1258.59 1883.57 1246.39 1880.1 1231.77 1878.68 1214.72 1878.59 1214.01 1878.5 1213.1 1878.41 1211.98L1878.38 1211.54 1876.96 1213.93C1871.02 1223.83 1865.51 1232.39 1860.42 1239.61 1853.64 1249.24 1847.14 1257.16 1840.92 1263.38 1833.24 1271.05 1825.41 1276.97 1817.43 1281.15 1809.45 1285.33 1801.74 1287.41 1794.31 1287.41 1778.94 1287.41 1766.94 1282.75 1758.3 1273.42 1749.67 1264.1 1745.35 1251.17 1745.35 1234.63 1745.35 1214.11 1750.89 1184.15 1761.98 1144.76 1765.73 1131.75 1769.57 1119.46 1773.51 1107.88 1777.45 1096.31 1781.63 1085.21 1786.06 1074.59 1790.49 1063.97 1793.84 1056.7 1796.12 1052.77 1798.49 1048.47 1801.38 1045.29 1804.79 1043.21 1808.21 1041.13 1812.67 1039.51 1818.19 1038.33 1827.41 1036.54 1835.76 1035.64 1843.24 1035.64Z" stroke="#FFC000" stroke-width="5" stroke-linejoin="round" stroke-miterlimit="10" fill="#FFC000" fill-rule="evenodd"/><text fill="#000000" fill-opacity="0" font-family="Arial,Arial_MSFontService,sans-serif" font-size="251.775" x="1745.35" y="1255.94">U</text><g clip-path="url(#clip9)" filter="url(#fx2)" transform="translate(1968 901)"><g clip-path="url(#clip10)"><path d="M155.493 191.253C155.566 191.253 155.504 191.394 155.309 191.675 149.966 197.848 144.871 206.572 140.024 217.846 135.176 229.12 131.155 241.461 127.96 254.87 124.765 268.279 123.167 280.117 123.167 290.383 123.167 306.983 127.412 315.283 135.901 315.283 140.876 315.283 148.126 311.934 157.651 305.236 167.176 298.537 176.095 290.283 184.41 280.472L184.41 272.793C180.684 280.362 176.026 284.147 170.434 284.147 164.655 284.147 161.766 281.253 161.766 275.466 161.766 273.837 162.262 271.517 163.253 268.507 166.722 258.243 168.456 248.699 168.456 239.875 168.456 226.993 165.627 213.497 159.968 199.387 158.17 193.964 156.678 191.253 155.493 191.253ZM278.366 22.1909C286.667 22.1909 293.168 22.6915 297.868 23.6927 302.568 24.6938 307.036 27.3589 311.271 31.6878 303.211 58.0046 297.608 77.5424 294.463 90.3015 291.317 103.06 287.91 120.309 284.24 142.048 278.587 177.36 275.76 209.286 275.76 237.825 275.76 256.727 277.291 276.293 280.352 296.523 283.413 316.752 288.487 340.372 295.574 367.383 284.882 375.191 275.4 381.314 267.13 385.75 258.859 390.186 250.836 393.746 243.06 396.431 235.284 399.115 228.292 400.458 222.084 400.458 210.052 400.458 201.579 394.636 196.665 382.992 193.143 374.749 190.855 368.12 189.8 363.103 188.745 358.087 187.375 346.083 185.689 327.092 168.14 349.822 148.759 368.161 127.548 382.109 106.336 396.057 89.0194 403.031 75.5983 403.031 59.7514 403.031 46.906 396.723 37.062 384.107 27.218 371.492 22.296 355.475 22.296 336.058 22.296 319.072 25.8577 300.401 32.981 280.044 40.1043 259.687 49.9208 239.989 62.4306 220.95 70.6998 208.36 79.1881 197.707 87.8956 188.993 96.6031 180.279 106.499 172.195 117.582 164.741 137.981 151.365 155.25 144.677 169.389 144.677 176.865 144.677 185.1 148.883 194.096 157.294L195.089 149.852C200.163 127.395 204.824 108.982 209.071 94.6136 213.318 80.2451 217.762 67.9337 222.402 57.6796 227.042 47.4255 232.109 39.5483 237.604 34.048 244.973 26.1433 258.56 22.1909 278.366 22.1909Z" stroke="#FFC000" stroke-width="5" stroke-linejoin="round" stroke-miterlimit="10" fill="#FFC000" fill-rule="evenodd"/></g></g><path d="M2110.43 1079.19C2110.51 1079.19 2110.44 1079.33 2110.25 1079.62 2104.91 1085.79 2099.81 1094.51 2094.96 1105.79 2090.12 1117.06 2086.1 1129.4 2082.9 1142.81 2079.71 1156.22 2078.11 1168.06 2078.11 1178.32 2078.11 1194.92 2082.35 1203.22 2090.84 1203.22 2095.82 1203.22 2103.07 1199.87 2112.59 1193.18 2122.12 1186.48 2131.04 1178.22 2139.35 1168.41L2139.35 1160.73C2135.62 1168.3 2130.97 1172.09 2125.38 1172.09 2119.6 1172.09 2116.71 1169.19 2116.71 1163.41 2116.71 1161.78 2117.2 1159.46 2118.19 1156.45 2121.66 1146.18 2123.4 1136.64 2123.4 1127.82 2123.4 1114.93 2120.57 1101.44 2114.91 1087.33 2113.11 1081.91 2111.62 1079.19 2110.43 1079.19ZM2233.31 910.132C2241.61 910.132 2248.11 910.632 2252.81 911.633 2257.51 912.635 2261.98 915.3 2266.21 919.629 2258.15 945.945 2252.55 965.483 2249.4 978.242 2246.26 991.001 2242.85 1008.25 2239.18 1029.99 2233.53 1065.3 2230.7 1097.23 2230.7 1125.77 2230.7 1144.67 2232.23 1164.23 2235.29 1184.46 2238.35 1204.69 2243.43 1228.31 2250.51 1255.32 2239.82 1263.13 2230.34 1269.25 2222.07 1273.69 2213.8 1278.13 2205.78 1281.69 2198 1284.37 2190.22 1287.06 2183.23 1288.4 2177.02 1288.4 2164.99 1288.4 2156.52 1282.58 2151.61 1270.93 2148.08 1262.69 2145.8 1256.06 2144.74 1251.04 2143.69 1246.03 2142.32 1234.02 2140.63 1215.03 2123.08 1237.76 2103.7 1256.1 2082.49 1270.05 2061.28 1284 2043.96 1290.97 2030.54 1290.97 2014.69 1290.97 2001.85 1284.66 1992 1272.05 1982.16 1259.43 1977.24 1243.42 1977.24 1224 1977.24 1207.01 1980.8 1188.34 1987.92 1167.98 1995.05 1147.63 2004.86 1127.93 2017.37 1108.89 2025.64 1096.3 2034.13 1085.65 2042.84 1076.93 2051.54 1068.22 2061.44 1060.14 2072.52 1052.68 2092.92 1039.31 2110.19 1032.62 2124.33 1032.62 2131.81 1032.62 2140.04 1036.82 2149.04 1045.23L2150.03 1037.79C2155.1 1015.34 2159.76 996.923 2164.01 982.554 2168.26 968.186 2172.7 955.875 2177.34 945.62 2181.98 935.366 2187.05 927.489 2192.54 921.989 2199.91 914.084 2213.5 910.132 2233.31 910.132Z" stroke="#FFC000" stroke-width="5" stroke-linejoin="round" stroke-miterlimit="10" fill="#FFC000" fill-rule="evenodd"/><text fill="#000000" fill-opacity="0" font-family="Arial,Arial_MSFontService,sans-serif" font-size="380.84" x="1977.24" y="1243.37">d</text><g clip-path="url(#clip11)" filter="url(#fx3)" transform="translate(2267 1052)"><g clip-path="url(#clip12)"><path d="M169.841 23.9077C184.105 23.9077 191.236 26.8291 191.236 32.6718 191.236 34.8874 189.701 37.8541 186.629 41.5719 181.604 46.2616 177.253 49.5694 173.576 51.4954 169.899 53.4215 164.391 55.4277 157.051 57.514 148.227 60.1593 142.013 62.4579 138.407 64.41 134.802 66.362 130.331 69.7181 124.996 74.4783 117.587 81.8837 112.289 87.8363 109.101 92.3363 105.914 96.8363 102.257 103.841 98.1292 113.352 95.7794 118.567 93.9616 124.768 92.6759 131.955 91.2442 137.578 90.5283 145.158 90.5283 154.697 90.5283 168.294 91.7779 179.463 94.2772 188.203 96.7764 196.943 100.336 203.408 104.955 207.598 109.574 211.788 115.078 213.883 121.466 213.883 126.704 213.883 132.175 211.887 137.879 207.894 143.582 203.901 148.854 198.519 153.694 191.75 158.533 184.981 162.429 177.429 165.38 169.093 168.33 160.758 169.806 152.798 169.806 145.213 169.806 131.482 165.02 117.061 155.45 101.951 151.378 94.9942 149.342 90.0334 149.342 87.0693 149.342 81.7838 152.066 76.6611 157.514 71.7012 162.952 66.4778 169.357 61.745 176.729 57.5027 184.101 53.2603 190.064 51.1392 194.618 51.1392 197.347 51.1392 200.256 51.8005 203.346 53.1231 206.437 54.4458 208.843 56.1687 210.567 58.292 214.223 62.0551 217.206 68.8004 219.515 78.528 221.825 88.2555 222.979 98.4165 222.979 109.011 222.979 134.292 217.777 157.684 207.374 179.188 196.97 200.692 182.794 217.758 164.847 230.388 146.9 243.018 127.391 249.333 106.319 249.333 94.2142 249.333 82.2224 247.098 70.3439 242.63 58.4654 238.162 49.9312 232.444 44.7414 225.475 29.7192 212.154 22.208 195.229 22.208 174.698 22.208 162.94 24.4643 150.56 28.9769 137.558 33.4894 124.556 39.6871 111.914 47.5701 99.6339 55.453 87.3533 64.5859 76.1026 74.9689 65.8816 85.3519 55.6606 96.0211 47.5968 106.976 41.6902 116.948 36.3292 127.724 32.0252 139.305 28.7782 150.886 25.5312 161.064 23.9077 169.841 23.9077ZM338.256 22.9409C355.247 22.9409 368.488 26.5962 377.978 33.9068 387.468 41.2173 392.213 51.5303 392.213 64.8455 392.213 71.2204 390.541 77.7483 387.198 84.4295 383.854 91.1106 379.574 96.4284 374.357 100.383 369.825 106.095 365.704 110.058 361.992 112.271 358.28 114.485 355.006 115.592 352.171 115.592 347.284 115.592 345.941 112.414 348.143 106.058 350.345 104.015 349.459 102.251 345.484 100.766 346.129 95.8208 346.451 91.5374 346.451 87.9152 346.451 82.858 345.671 77.6988 344.11 72.4377 342.549 67.1765 340.684 62.9828 338.517 59.8567 336.349 56.7306 334.678 55.1675 333.505 55.1675 333.433 55.1675 333.009 55.6375 332.234 56.5774 329.572 59.3284 327.516 62.7017 326.067 66.6973 324.617 70.6929 323.893 74.4111 323.893 77.852 323.893 82.3402 324.51 86.426 325.746 90.1094 326.981 93.7928 329.207 97.6394 332.425 101.649 335.643 105.659 339.94 110.091 345.316 114.945 354.416 123.155 361.421 130.334 366.331 136.484 371.24 142.634 374.875 148.882 377.234 155.228 379.593 161.575 380.772 168.356 380.772 175.571 380.772 188.296 377.421 200.593 370.719 212.462 364.017 224.331 355.134 233.927 344.069 241.249 333.005 248.572 321.478 252.233 309.489 252.233 298.215 252.233 287.291 249.835 276.72 245.04 266.148 240.244 256.958 233.694 249.15 225.389 237.855 214.994 232.208 205.814 232.208 197.848 232.208 192.625 234.564 187.658 239.275 182.948 243.705 178.519 249.218 174.726 255.816 171.568 262.414 168.411 268.045 166.833 272.708 166.833 275.828 166.833 278.515 167.643 280.769 169.265 283.024 170.886 284.888 173.319 286.361 176.563 287.835 179.808 289.255 184.265 290.621 189.935 292.462 196.157 294.182 200.892 295.78 204.14 297.378 207.388 299.428 210.394 301.931 213.158 304.667 215.897 307.298 217.267 309.826 217.267 312.953 217.267 315.462 215.973 317.352 213.385 319.242 210.797 320.186 206.952 320.186 201.851 320.186 193.551 317.208 185.225 311.251 176.873 309.306 173.755 307.191 171.006 304.908 168.628 302.624 166.249 297.912 161.871 290.772 155.493 288.419 153.558 284.635 150.132 279.42 145.216 270.089 135.779 263.487 127.325 259.612 119.854 255.737 112.382 253.8 104.316 253.8 95.6546 253.8 82.7657 257.685 70.7038 265.457 59.469 273.228 48.2342 283.595 39.3374 296.558 32.7789 309.521 26.2202 323.42 22.9409 338.256 22.9409Z" stroke="#FFC000" stroke-width="5" stroke-linejoin="round" stroke-miterlimit="10" fill="#FFC000" fill-rule="evenodd"/></g></g><path d="M2423.78 1062.85C2438.05 1062.85 2445.18 1065.77 2445.18 1071.61 2445.18 1073.83 2443.64 1076.79 2440.57 1080.51 2435.54 1085.2 2431.19 1088.51 2427.52 1090.44 2423.84 1092.36 2418.33 1094.37 2410.99 1096.45 2402.17 1099.1 2395.95 1101.4 2392.35 1103.35 2388.74 1105.3 2384.27 1108.66 2378.94 1113.42 2371.53 1120.82 2366.23 1126.78 2363.04 1131.28 2359.85 1135.78 2356.2 1142.78 2352.07 1152.29 2349.72 1157.51 2347.9 1163.71 2346.62 1170.9 2345.19 1176.52 2344.47 1184.1 2344.47 1193.64 2344.47 1207.24 2345.72 1218.4 2348.22 1227.14 2350.72 1235.88 2354.28 1242.35 2358.9 1246.54 2363.51 1250.73 2369.02 1252.82 2375.41 1252.82 2380.65 1252.82 2386.12 1250.83 2391.82 1246.83 2397.52 1242.84 2402.79 1237.46 2407.63 1230.69 2412.47 1223.92 2416.37 1216.37 2419.32 1208.03 2422.27 1199.7 2423.75 1191.74 2423.75 1184.15 2423.75 1170.42 2418.96 1156 2409.39 1140.89 2405.32 1133.93 2403.28 1128.97 2403.28 1126.01 2403.28 1120.72 2406.01 1115.6 2411.46 1110.64 2416.89 1105.42 2423.3 1100.69 2430.67 1096.44 2438.04 1092.2 2444 1090.08 2448.56 1090.08 2451.29 1090.08 2454.2 1090.74 2457.29 1092.06 2460.38 1093.39 2462.78 1095.11 2464.51 1097.23 2468.16 1101 2471.15 1107.74 2473.46 1117.47 2475.77 1127.2 2476.92 1137.36 2476.92 1147.95 2476.92 1173.23 2471.72 1196.63 2461.31 1218.13 2450.91 1239.63 2436.73 1256.7 2418.79 1269.33 2400.84 1281.96 2381.33 1288.27 2360.26 1288.27 2348.16 1288.27 2336.16 1286.04 2324.28 1281.57 2312.41 1277.1 2303.87 1271.38 2298.68 1264.42 2283.66 1251.1 2276.15 1234.17 2276.15 1213.64 2276.15 1201.88 2278.41 1189.5 2282.92 1176.5 2287.43 1163.5 2293.63 1150.86 2301.51 1138.57 2309.39 1126.29 2318.53 1115.04 2328.91 1104.82 2339.29 1094.6 2349.96 1086.54 2360.92 1080.63 2370.89 1075.27 2381.67 1070.97 2393.25 1067.72 2404.83 1064.47 2415.01 1062.85 2423.78 1062.85ZM2592.2 1061.88C2609.19 1061.88 2622.43 1065.54 2631.92 1072.85 2641.41 1080.16 2646.15 1090.47 2646.15 1103.79 2646.15 1110.16 2644.48 1116.69 2641.14 1123.37 2637.79 1130.05 2633.51 1135.37 2628.3 1139.32 2623.77 1145.04 2619.64 1149 2615.93 1151.21 2612.22 1153.43 2608.95 1154.53 2606.11 1154.53 2601.22 1154.53 2599.88 1151.35 2602.08 1145 2604.29 1142.96 2603.4 1141.19 2599.43 1139.71 2600.07 1134.76 2600.39 1130.48 2600.39 1126.86 2600.39 1121.8 2599.61 1116.64 2598.05 1111.38 2596.49 1106.12 2594.63 1101.92 2592.46 1098.8 2590.29 1095.67 2588.62 1094.11 2587.45 1094.11 2587.37 1094.11 2586.95 1094.58 2586.17 1095.52 2583.51 1098.27 2581.46 1101.64 2580.01 1105.64 2578.56 1109.63 2577.83 1113.35 2577.83 1116.79 2577.83 1121.28 2578.45 1125.37 2579.69 1129.05 2580.92 1132.73 2583.15 1136.58 2586.37 1140.59 2589.58 1144.6 2593.88 1149.03 2599.26 1153.89 2608.36 1162.1 2615.36 1169.28 2620.27 1175.42 2625.18 1181.57 2628.82 1187.82 2631.17 1194.17 2633.53 1200.52 2634.71 1207.3 2634.71 1214.51 2634.71 1227.24 2631.36 1239.53 2624.66 1251.4 2617.96 1263.27 2609.07 1272.87 2598.01 1280.19 2586.95 1287.51 2575.42 1291.17 2563.43 1291.17 2552.16 1291.17 2541.23 1288.78 2530.66 1283.98 2520.09 1279.19 2510.9 1272.64 2503.09 1264.33 2491.8 1253.94 2486.15 1244.75 2486.15 1236.79 2486.15 1231.57 2488.5 1226.6 2493.22 1221.89 2497.65 1217.46 2503.16 1213.67 2509.76 1210.51 2516.36 1207.35 2521.99 1205.77 2526.65 1205.77 2529.77 1205.77 2532.46 1206.58 2534.71 1208.21 2536.96 1209.83 2538.83 1212.26 2540.3 1215.5 2541.78 1218.75 2543.2 1223.21 2544.56 1228.88 2546.4 1235.1 2548.12 1239.83 2549.72 1243.08 2551.32 1246.33 2553.37 1249.33 2555.87 1252.1 2558.61 1254.84 2561.24 1256.21 2563.77 1256.21 2566.89 1256.21 2569.4 1254.91 2571.29 1252.33 2573.18 1249.74 2574.13 1245.89 2574.13 1240.79 2574.13 1232.49 2571.15 1224.17 2565.19 1215.81 2563.25 1212.7 2561.13 1209.95 2558.85 1207.57 2556.57 1205.19 2551.85 1200.81 2544.71 1194.43 2542.36 1192.5 2538.58 1189.07 2533.36 1184.16 2524.03 1174.72 2517.43 1166.27 2513.55 1158.79 2509.68 1151.32 2507.74 1143.26 2507.74 1134.6 2507.74 1121.71 2511.63 1109.64 2519.4 1098.41 2527.17 1087.17 2537.54 1078.28 2550.5 1071.72 2563.46 1065.16 2577.36 1061.88 2592.2 1061.88Z" stroke="#FFC000" stroke-width="5" stroke-linejoin="round" stroke-miterlimit="10" fill="#FFC000" fill-rule="evenodd"/><text fill="#000000" fill-opacity="0" font-family="Arial,Arial_MSFontService,sans-serif" font-size="229.292" x="2276.15" y="1262.51">OS</text><text fill="#FBE5D6" font-family="Forte,Forte_MSFontService,sans-serif" font-weight="400" font-size="83" transform="matrix(1 0 0 1 1839.39 1388)">Since. 2018</text></g></svg>